<svg width="533" height="393" viewBox="0 0 533 393" fill="none" xmlns="http://www.w3.org/2000/svg">
<g clip-path="url(#clip0_30_41)">
<rect width="533" height="393" rx="42" fill="white"/>
<rect width="533" height="393" fill="#0051FF"/>
<rect x="19" y="19" width="495" height="354" rx="26" fill="#E3E4DD"/>
<g filter="url(#filter0_d_30_41)">
<rect x="99" y="121.985" width="329.916" height="116.161" rx="58.0803" transform="rotate(-3.26725 99 121.985)" fill="#C9C8BE"/>
</g>
<path d="M150.948 213.957C147.89 214.138 145.503 213.496 143.787 212.03C142.133 210.496 141.22 208.232 141.049 205.239L138.178 154.972C138.007 151.979 138.658 149.655 140.13 148.001C141.664 146.278 143.96 145.326 147.018 145.145L170.831 143.737C175.775 143.444 180.015 143.944 183.549 145.237C187.144 146.461 189.928 148.353 191.902 150.913C193.877 153.473 194.966 156.542 195.17 160.121C195.401 164.156 194.427 167.674 192.248 170.675C190.134 173.673 187.123 175.81 183.213 177.086L183.124 175.524C187.857 176.093 191.576 177.766 194.28 180.544C197.05 183.319 198.565 186.983 198.825 191.538C199.171 197.59 197.264 202.501 193.106 206.273C189.009 209.976 183.219 212.048 175.737 212.491L150.948 213.957ZM158.003 200.319L172.544 199.458C175.862 199.262 178.234 198.502 179.66 197.177C181.147 195.783 181.819 193.817 181.674 191.28C181.529 188.742 180.64 186.901 179.008 185.757C177.441 184.609 174.998 184.133 171.68 184.33L157.139 185.19L158.003 200.319ZM156.386 172.013L169.171 171.257C172.424 171.064 174.765 170.338 176.195 169.078C177.69 167.815 178.368 165.979 178.231 163.572C178.093 161.164 177.212 159.453 175.587 158.439C174.024 157.357 171.616 156.911 168.363 157.104L155.578 157.86L156.386 172.013ZM213.184 211.157C211.167 211.277 209.45 210.921 208.031 210.091C206.609 209.196 205.689 207.944 205.271 206.337C204.849 204.664 205.034 202.76 205.826 200.624L227.139 146.87C228.165 144.263 229.491 142.324 231.116 141.052C232.805 139.777 234.756 139.074 236.968 138.943C239.181 138.812 241.133 139.284 242.827 140.36C244.585 141.431 246.155 143.199 247.536 145.663L274.825 196.543C275.985 198.563 276.451 200.429 276.222 202.14C276.058 203.847 275.319 205.197 274.005 206.189C272.756 207.177 271.155 207.728 269.204 207.844C266.601 207.998 264.551 207.531 263.052 206.445C261.619 205.354 260.275 203.541 259.02 201.003L253.042 188.919L260.158 193.493L219.949 195.871L226.594 190.483L222.032 203.191C221.01 205.863 219.914 207.821 218.745 209.066C217.575 210.31 215.722 211.007 213.184 211.157ZM237.894 158.574L228.117 186.28L225.117 181.756L253.517 180.077L251.052 184.923L238.089 158.562L237.894 158.574ZM293.475 206.408C290.612 206.578 288.323 205.93 286.607 204.464C284.953 202.93 284.04 200.666 283.869 197.673L280.948 146.527C280.777 143.534 281.428 141.21 282.9 139.556C284.434 137.833 286.729 136.881 289.787 136.7L322.286 134.778C324.629 134.64 326.419 135.121 327.657 136.223C328.895 137.325 329.577 138.983 329.703 141.195C329.833 143.472 329.348 145.264 328.248 146.57C327.143 147.81 325.42 148.5 323.078 148.638L299.167 150.052L299.959 163.912L321.722 162.625C324 162.49 325.757 162.974 326.995 164.076C328.298 165.174 329.013 166.83 329.139 169.042C329.269 171.319 328.75 173.08 327.581 174.325C326.476 175.565 324.786 176.253 322.508 176.388L300.745 177.675L301.826 196.61C302.179 202.792 299.395 206.058 293.475 206.408ZM339.085 203.71C337.068 203.83 335.35 203.474 333.932 202.644C332.51 201.749 331.59 200.498 331.171 198.89C330.75 197.217 330.935 195.313 331.726 193.177L353.04 139.423C354.066 136.816 355.391 134.877 357.016 133.605C358.706 132.33 360.657 131.627 362.869 131.496C365.081 131.365 367.034 131.838 368.727 132.913C370.486 133.984 372.056 135.752 373.437 138.216L400.726 189.096C401.886 191.116 402.351 192.982 402.122 194.693C401.959 196.401 401.22 197.75 399.906 198.742C398.656 199.73 397.056 200.282 395.104 200.397C392.501 200.551 390.451 200.085 388.953 198.998C387.52 197.908 386.176 196.094 384.921 193.556L378.943 181.472L386.059 186.046L345.85 188.424L352.495 183.036L347.933 195.744C346.91 198.416 345.814 200.374 344.645 201.619C343.476 202.863 341.622 203.56 339.085 203.71ZM363.794 151.127L354.017 178.833L351.017 174.31L379.417 172.63L376.952 177.476L363.989 151.115L363.794 151.127Z" fill="#0051FF"/>
<g filter="url(#filter1_d_30_41)">
<rect width="228.629" height="78.4804" rx="39.2402" transform="matrix(0.999999 0.00124221 -0.00338601 0.999994 171.367 213.874)" fill="#B7B5A7"/>
</g>
<path d="M208.233 268.561C205.374 268.561 202.917 268.011 200.864 266.911C198.811 265.811 197.235 264.259 196.135 262.255C195.059 260.251 194.522 257.905 194.522 255.216C194.522 253.212 194.827 251.391 195.438 249.754C196.074 248.116 196.978 246.711 198.151 245.537C199.349 244.364 200.791 243.472 202.477 242.861C204.188 242.226 206.107 241.908 208.233 241.908C209.357 241.908 210.518 242.042 211.716 242.311C212.938 242.556 214.014 242.935 214.942 243.448C215.627 243.814 216.103 244.279 216.372 244.841C216.641 245.403 216.726 245.977 216.629 246.564C216.555 247.151 216.348 247.676 216.005 248.14C215.663 248.605 215.223 248.923 214.686 249.094C214.148 249.24 213.561 249.155 212.926 248.837C212.193 248.495 211.459 248.238 210.726 248.067C210.017 247.872 209.272 247.774 208.49 247.774C206.974 247.774 205.704 248.067 204.677 248.654C203.675 249.216 202.917 250.047 202.404 251.147C201.891 252.247 201.634 253.603 201.634 255.216C201.634 256.829 201.891 258.198 202.404 259.322C202.917 260.422 203.675 261.265 204.677 261.852C205.704 262.414 206.974 262.695 208.49 262.695C209.125 262.695 209.81 262.622 210.543 262.475C211.276 262.304 211.997 262.048 212.706 261.705C213.439 261.388 214.087 261.302 214.649 261.449C215.236 261.595 215.7 261.889 216.042 262.329C216.409 262.769 216.641 263.282 216.739 263.868C216.836 264.431 216.751 264.993 216.482 265.555C216.238 266.117 215.798 266.569 215.162 266.911C214.307 267.425 213.244 267.828 211.973 268.121C210.726 268.414 209.48 268.561 208.233 268.561ZM232.028 268.561C229.413 268.561 227.115 268.011 225.136 266.911C223.156 265.787 221.616 264.223 220.516 262.219C219.441 260.214 218.903 257.88 218.903 255.216C218.903 253.212 219.209 251.391 219.82 249.754C220.455 248.116 221.347 246.711 222.496 245.537C223.669 244.364 225.062 243.472 226.675 242.861C228.289 242.226 230.073 241.908 232.028 241.908C234.643 241.908 236.929 242.458 238.884 243.558C240.864 244.658 242.403 246.21 243.503 248.214C244.603 250.194 245.153 252.528 245.153 255.216C245.153 257.22 244.835 259.041 244.2 260.679C243.589 262.316 242.697 263.734 241.524 264.932C240.375 266.105 238.994 267.009 237.381 267.645C235.768 268.256 233.983 268.561 232.028 268.561ZM232.028 262.915C233.323 262.915 234.423 262.61 235.328 261.999C236.232 261.388 236.929 260.508 237.417 259.359C237.906 258.21 238.151 256.829 238.151 255.216C238.151 252.797 237.613 250.915 236.538 249.57C235.462 248.226 233.959 247.554 232.028 247.554C230.757 247.554 229.657 247.859 228.729 248.47C227.824 249.057 227.128 249.925 226.639 251.073C226.15 252.198 225.906 253.579 225.906 255.216C225.906 257.636 226.443 259.53 227.519 260.899C228.594 262.243 230.097 262.915 232.028 262.915ZM252.252 268.488C251.275 268.488 250.517 268.219 249.979 267.681C249.466 267.144 249.209 266.386 249.209 265.408V245.061C249.209 244.059 249.49 243.301 250.053 242.788C250.615 242.25 251.409 241.981 252.436 241.981C253.291 241.981 253.963 242.152 254.452 242.495C254.965 242.812 255.43 243.35 255.845 244.108L263.727 258.259H262.444L270.29 244.108C270.73 243.35 271.194 242.812 271.683 242.495C272.196 242.152 272.881 241.981 273.736 241.981C274.714 241.981 275.459 242.25 275.972 242.788C276.51 243.301 276.779 244.059 276.779 245.061V265.408C276.779 266.386 276.522 267.144 276.009 267.681C275.496 268.219 274.738 268.488 273.736 268.488C272.758 268.488 272.001 268.219 271.463 267.681C270.95 267.144 270.693 266.386 270.693 265.408V252.797H271.463L265.56 263.062C265.218 263.6 264.852 264.003 264.461 264.272C264.094 264.541 263.593 264.675 262.958 264.675C262.346 264.675 261.845 264.541 261.454 264.272C261.063 264.003 260.709 263.6 260.391 263.062L254.452 252.76H255.295V265.408C255.295 266.386 255.039 267.144 254.525 267.681C254.012 268.219 253.254 268.488 252.252 268.488ZM284.91 268.488C283.835 268.488 283.004 268.194 282.417 267.608C281.831 266.997 281.537 266.154 281.537 265.078V245.721C281.537 244.621 281.831 243.778 282.417 243.191C283.028 242.605 283.871 242.311 284.947 242.311H293.966C296.899 242.311 299.159 243.069 300.748 244.584C302.361 246.075 303.168 248.14 303.168 250.78C303.168 253.42 302.361 255.497 300.748 257.013C299.159 258.504 296.899 259.249 293.966 259.249H288.283V265.078C288.283 266.154 288.002 266.997 287.44 267.608C286.878 268.194 286.034 268.488 284.91 268.488ZM288.283 254.08H292.792C294.063 254.08 295.041 253.811 295.725 253.273C296.41 252.711 296.752 251.88 296.752 250.78C296.752 249.656 296.41 248.825 295.725 248.287C295.041 247.749 294.063 247.481 292.792 247.481H288.283V254.08ZM309.722 268.158C308.647 268.158 307.804 267.865 307.193 267.278C306.606 266.667 306.313 265.824 306.313 264.748V245.684C306.313 244.584 306.606 243.741 307.193 243.154C307.779 242.568 308.61 242.275 309.686 242.275C310.785 242.275 311.616 242.568 312.179 243.154C312.765 243.741 313.058 244.584 313.058 245.684V262.549H322.004C322.933 262.549 323.641 262.793 324.13 263.282C324.644 263.746 324.9 264.431 324.9 265.335C324.9 266.239 324.644 266.936 324.13 267.425C323.641 267.913 322.933 268.158 322.004 268.158H309.722ZM331.278 268.158C330.129 268.158 329.249 267.865 328.638 267.278C328.052 266.667 327.758 265.799 327.758 264.675V245.794C327.758 244.67 328.052 243.814 328.638 243.228C329.249 242.617 330.129 242.311 331.278 242.311H343.706C344.586 242.311 345.246 242.531 345.686 242.971C346.126 243.411 346.346 244.047 346.346 244.878C346.346 245.733 346.126 246.393 345.686 246.857C345.246 247.297 344.586 247.517 343.706 247.517H334.211V252.43H342.9C343.755 252.43 344.403 252.65 344.843 253.09C345.307 253.53 345.539 254.177 345.539 255.033C345.539 255.888 345.307 256.536 344.843 256.976C344.403 257.416 343.755 257.636 342.9 257.636H334.211V262.952H343.706C344.586 262.952 345.246 263.184 345.686 263.648C346.126 264.088 346.346 264.724 346.346 265.555C346.346 266.41 346.126 267.058 345.686 267.498C345.246 267.938 344.586 268.158 343.706 268.158H331.278ZM359.916 268.488C358.841 268.488 358.01 268.194 357.423 267.608C356.836 266.997 356.543 266.154 356.543 265.078V247.811H350.787C349.883 247.811 349.186 247.578 348.697 247.114C348.233 246.625 348.001 245.941 348.001 245.061C348.001 244.157 348.233 243.472 348.697 243.008C349.186 242.543 349.883 242.311 350.787 242.311H369.045C369.949 242.311 370.633 242.543 371.098 243.008C371.587 243.472 371.831 244.157 371.831 245.061C371.831 245.941 371.587 246.625 371.098 247.114C370.633 247.578 369.949 247.811 369.045 247.811H363.289V265.078C363.289 266.154 363.008 266.997 362.446 267.608C361.883 268.194 361.04 268.488 359.916 268.488Z" fill="#0051FF"/>
</g>
<defs>
<filter id="filter0_d_30_41" x="97.3259" y="106.396" width="339.348" height="138.123" filterUnits="userSpaceOnUse" color-interpolation-filters="sRGB">
<feFlood flood-opacity="0" result="BackgroundImageFix"/>
<feColorMatrix in="SourceAlpha" type="matrix" values="0 0 0 0 0 0 0 0 0 0 0 0 0 0 0 0 0 0 127 0" result="hardAlpha"/>
<feOffset dy="4.88824"/>
<feGaussianBlur stdDeviation="2.44412"/>
<feComposite in2="hardAlpha" operator="out"/>
<feColorMatrix type="matrix" values="0 0 0 0 0 0 0 0 0 0 0 0 0 0 0 0 0 0 0.25 0"/>
<feBlend mode="normal" in2="BackgroundImageFix" result="effect1_dropShadow_30_41"/>
<feBlend mode="normal" in="SourceGraphic" in2="effect1_dropShadow_30_41" result="shape"/>
</filter>
<filter id="filter1_d_30_41" x="166.346" y="213.922" width="238.405" height="88.443" filterUnits="userSpaceOnUse" color-interpolation-filters="sRGB">
<feFlood flood-opacity="0" result="BackgroundImageFix"/>
<feColorMatrix in="SourceAlpha" type="matrix" values="0 0 0 0 0 0 0 0 0 0 0 0 0 0 0 0 0 0 127 0" result="hardAlpha"/>
<feOffset dy="4.88824"/>
<feGaussianBlur stdDeviation="2.44412"/>
<feComposite in2="hardAlpha" operator="out"/>
<feColorMatrix type="matrix" values="0 0 0 0 0 0 0 0 0 0 0 0 0 0 0 0 0 0 0.25 0"/>
<feBlend mode="normal" in2="BackgroundImageFix" result="effect1_dropShadow_30_41"/>
<feBlend mode="normal" in="SourceGraphic" in2="effect1_dropShadow_30_41" result="shape"/>
</filter>
<clipPath id="clip0_30_41">
<rect width="533" height="393" rx="42" fill="white"/>
</clipPath>
</defs>
</svg>
