<svg width="3373" height="1434" viewBox="0 0 3373 1434" fill="none" xmlns="http://www.w3.org/2000/svg">
<g filter="url(#filter0_d_78_29)">
<path d="M211.648 446.808C177.553 446.808 148.267 440.252 123.788 427.138C99.3097 414.025 80.5137 395.52 67.4002 371.624C54.5782 347.729 48.1671 319.753 48.1671 287.698C48.1671 255.643 54.5782 227.813 67.4002 204.209C80.5137 180.313 99.3097 161.809 123.788 148.695C148.267 135.582 177.553 129.025 211.648 129.025C232.047 129.025 251.717 132.085 270.659 138.205C289.601 144.324 304.9 152.63 316.556 163.12L292.515 226.502C279.693 217.177 266.871 210.329 254.049 205.958C241.227 201.295 228.113 198.964 214.708 198.964C187.607 198.964 167.208 206.686 153.512 222.131C139.816 237.284 132.968 259.14 132.968 287.698C132.968 316.548 139.816 338.695 153.512 354.14C167.208 369.293 187.607 376.87 214.708 376.87C228.113 376.87 241.227 374.684 254.049 370.313C266.871 365.65 279.693 358.657 292.515 349.332L316.556 412.713C304.9 422.913 289.601 431.218 270.659 437.629C251.717 443.748 232.047 446.808 211.648 446.808ZM494.5 446.808C471.187 446.808 449.914 443.02 430.681 435.443C411.448 427.867 394.837 417.084 380.85 403.097C367.153 388.818 356.517 371.916 348.94 352.391C341.655 332.867 338.012 311.302 338.012 287.698C338.012 263.803 341.655 242.092 348.94 222.568C356.517 203.043 367.153 186.287 380.85 172.3C394.837 158.312 411.448 147.676 430.681 140.39C449.914 132.814 471.187 129.025 494.5 129.025C517.812 129.025 539.085 132.814 558.319 140.39C577.552 147.676 594.016 158.312 607.713 172.3C621.7 186.287 632.337 203.043 639.622 222.568C647.199 241.801 650.987 263.365 650.987 287.261C650.987 311.448 647.199 333.304 639.622 352.828C632.337 372.353 621.7 389.255 607.713 403.534C594.016 417.522 577.552 428.304 558.319 435.88C539.085 443.166 517.812 446.808 494.5 446.808ZM494.5 379.492C509.944 379.492 523.058 375.85 533.84 368.565C544.622 361.279 552.927 350.789 558.756 337.092C564.584 323.396 567.498 306.931 567.498 287.698C567.498 268.465 564.584 252 558.756 238.304C553.219 224.608 544.914 214.263 533.84 207.269C523.058 199.984 509.944 196.341 494.5 196.341C479.346 196.341 466.233 199.984 455.159 207.269C444.377 214.263 436.072 224.608 430.244 238.304C424.415 252 421.501 268.465 421.501 287.698C421.501 306.931 424.27 323.396 429.807 337.092C435.635 350.789 444.086 361.279 455.159 368.565C466.233 375.85 479.346 379.492 494.5 379.492ZM699.35 442V133.834H766.228L872.448 323.979H857.148L962.93 133.834H1028.06V442H955.499V258.849H964.679L885.124 396.54H841.412L761.857 258.411H771.911V442H699.35ZM1084.79 442V133.834H1232.98C1256.29 133.834 1276.1 137.913 1292.42 146.073C1308.74 153.941 1321.13 165.452 1329.58 180.605C1338.32 195.467 1342.69 213.534 1342.69 234.807C1342.69 255.497 1338.32 273.565 1329.58 289.01C1321.13 304.163 1308.74 315.819 1292.42 323.979C1276.1 331.847 1256.29 335.781 1232.98 335.781H1165.22V442H1084.79ZM1165.22 274.148H1218.99C1234.14 274.148 1245.8 270.942 1253.96 264.531C1262.12 257.829 1266.2 247.921 1266.2 234.807C1266.2 221.402 1262.12 211.494 1253.96 205.083C1245.8 198.672 1234.14 195.467 1218.99 195.467H1165.22V274.148ZM1380.19 442V133.834H1597.87V195.904H1457.12V254.477H1587.82V316.548H1457.12V379.93H1597.87V442H1380.19ZM1723.39 442V199.401H1625.47V133.834H1901.73V199.401H1803.81V442H1723.39ZM1932.13 442V133.834H2149.82V195.904H2009.06V254.477H2139.76V316.548H2009.06V379.93H2149.82V442H1932.13ZM2200.63 442V133.834H2259.64L2413.51 325.727H2401.27V133.834H2475.58V442H2417.01L2263.14 249.669H2275.38V442H2200.63ZM2687.5 446.808C2653.4 446.808 2624.12 440.252 2599.64 427.138C2575.16 414.025 2556.36 395.52 2543.25 371.624C2530.43 347.729 2524.02 319.753 2524.02 287.698C2524.02 255.643 2530.43 227.813 2543.25 204.209C2556.36 180.313 2575.16 161.809 2599.64 148.695C2624.12 135.582 2653.4 129.025 2687.5 129.025C2707.9 129.025 2727.57 132.085 2746.51 138.205C2765.45 144.324 2780.75 152.63 2792.41 163.12L2768.36 226.502C2755.54 217.177 2742.72 210.329 2729.9 205.958C2717.08 201.295 2703.96 198.964 2690.56 198.964C2663.46 198.964 2643.06 206.686 2629.36 222.131C2615.67 237.284 2608.82 259.14 2608.82 287.698C2608.82 316.548 2615.67 338.695 2629.36 354.14C2643.06 369.293 2663.46 376.87 2690.56 376.87C2703.96 376.87 2717.08 374.684 2729.9 370.313C2742.72 365.65 2755.54 358.657 2768.36 349.332L2792.41 412.713C2780.75 422.913 2765.45 431.218 2746.51 437.629C2727.57 443.748 2707.9 446.808 2687.5 446.808ZM2831.97 442V133.834H3049.66V195.904H2908.91V254.477H3039.6V316.548H2908.91V379.93H3049.66V442H2831.97ZM3210.73 446.808C3194.7 446.808 3178.97 445.497 3163.52 442.874C3148.08 440.252 3133.8 436.463 3120.69 431.509C3107.57 426.555 3096.21 420.727 3086.59 414.025L3108.88 351.517C3117.92 357.345 3127.97 362.445 3139.05 366.816C3150.12 371.187 3161.78 374.684 3174.01 377.307C3186.25 379.638 3198.49 380.804 3210.73 380.804C3229.97 380.804 3243.37 378.327 3250.95 373.373C3258.82 368.127 3262.75 361.716 3262.75 354.14C3262.75 349.477 3261.58 345.543 3259.25 342.338C3256.92 339.132 3252.99 336.364 3247.45 334.032C3242.2 331.41 3235.07 329.224 3226.03 327.476L3174.89 316.548C3146.91 310.72 3126.08 300.52 3112.38 285.95C3098.69 271.379 3091.84 252.583 3091.84 229.562C3091.84 209.163 3097.23 191.533 3108.01 176.671C3119.08 161.518 3134.38 149.861 3153.91 141.702C3173.72 133.251 3196.45 129.025 3222.1 129.025C3236.38 129.025 3250.07 130.337 3263.19 132.959C3276.59 135.582 3288.98 139.516 3300.34 144.761C3311.71 149.715 3321.32 155.544 3329.19 162.246L3306.9 220.82C3295.82 212.66 3282.86 206.395 3267.99 202.024C3253.42 197.361 3237.83 195.03 3221.22 195.03C3210.44 195.03 3201.26 196.341 3193.68 198.964C3186.11 201.295 3180.28 204.792 3176.2 209.455C3172.41 214.117 3170.52 219.508 3170.52 225.628C3170.52 231.747 3172.99 236.993 3177.95 241.364C3183.19 245.444 3192.66 248.941 3206.36 251.855L3257.07 262.783C3285.33 268.902 3306.46 278.956 3320.45 292.944C3334.44 306.931 3341.43 325.144 3341.43 347.583C3341.43 367.399 3336.04 384.884 3325.26 400.037C3314.47 414.899 3299.32 426.41 3279.8 434.569C3260.27 442.729 3237.25 446.808 3210.73 446.808Z" fill="#0051FF"/>
<path d="M61.4692 857.364V552.103H102.201V603.361H97.6246C102.506 586.58 112.117 573.156 126.457 563.087C140.797 553.018 158.036 547.984 178.173 547.984C198.005 547.984 215.244 552.713 229.889 562.172C244.534 571.325 255.976 584.597 264.214 601.988C272.452 619.074 276.571 639.517 276.571 663.315C276.571 686.808 272.452 707.403 264.214 725.1C256.281 742.491 244.839 755.916 229.889 765.374C215.244 774.527 198.005 779.104 178.173 779.104C158.341 779.104 141.255 774.07 126.915 764.001C112.575 753.932 102.964 740.66 98.0822 724.184H103.117V857.364H61.4692ZM168.562 746.152C188.699 746.152 204.718 739.135 216.617 725.1C228.516 710.76 234.466 690.165 234.466 663.315C234.466 636.466 228.516 616.023 216.617 601.988C204.718 587.953 188.699 580.936 168.562 580.936C148.425 580.936 132.407 587.953 120.508 601.988C108.608 616.023 102.659 636.466 102.659 663.315C102.659 690.165 108.608 710.76 120.508 725.1C132.407 739.135 148.425 746.152 168.562 746.152ZM330.078 774.985V552.103H370.81V605.192H366.233C371.115 586.885 379.963 573.156 392.778 564.002C405.592 554.544 422.526 549.052 443.578 547.526L457.766 546.153L460.969 582.309L434.883 584.597C414.746 586.733 399.185 593.293 388.201 604.277C377.522 615.261 372.183 630.363 372.183 649.585V774.985H330.078ZM588.84 779.104C566.872 779.104 547.803 774.375 531.632 764.916C515.461 755.458 502.952 742.033 494.104 724.642C485.255 707.251 480.831 686.808 480.831 663.315C480.831 639.822 485.255 619.532 494.104 602.446C502.952 585.055 515.461 571.63 531.632 562.172C547.803 552.713 566.872 547.984 588.84 547.984C610.808 547.984 629.877 552.713 646.048 562.172C662.218 571.63 674.728 585.055 683.576 602.446C692.424 619.532 696.848 639.822 696.848 663.315C696.848 686.808 692.424 707.251 683.576 724.642C674.728 742.033 662.218 755.458 646.048 764.916C629.877 774.375 610.808 779.104 588.84 779.104ZM588.84 746.152C608.977 746.152 624.995 739.135 636.894 725.1C648.794 710.76 654.743 690.165 654.743 663.315C654.743 636.466 648.794 616.023 636.894 601.988C624.995 587.953 608.977 580.936 588.84 580.936C569.008 580.936 552.989 587.953 540.785 601.988C528.886 616.023 522.936 636.466 522.936 663.315C522.936 690.165 528.886 710.76 540.785 725.1C552.989 739.135 569.008 746.152 588.84 746.152ZM760.778 774.985V584.139H717.3V552.103H772.219L760.778 563.087V546.153C760.778 515.948 768.406 493.217 783.661 477.962C798.916 462.401 822.41 453.706 854.141 451.875L872.905 450.502L876.109 482.538L855.056 483.911C842.547 484.522 832.478 487.115 824.851 491.692C817.223 495.963 811.578 502.218 807.917 510.456C804.256 518.389 802.425 528.457 802.425 540.662V558.968L796.476 552.103H865.583V584.139H802.425V774.985H760.778ZM908.267 774.985V584.139H864.789V552.103H919.708L908.267 563.087V546.153C908.267 515.948 915.895 493.217 931.15 477.962C946.405 462.401 969.899 453.706 1001.63 451.875L1020.39 450.502L1023.6 482.538L1002.55 483.911C990.036 484.522 979.967 487.115 972.34 491.692C964.712 495.963 959.067 502.218 955.406 510.456C951.745 518.389 949.914 528.457 949.914 540.662V558.968L943.965 552.103H1013.07V584.139H949.914V774.985H908.267ZM1147.7 779.104C1123.6 779.104 1102.85 774.527 1085.46 765.374C1068.37 755.916 1055.1 742.643 1045.64 725.557C1036.19 708.166 1031.46 687.724 1031.46 664.23C1031.46 641.042 1036.03 620.752 1045.19 603.361C1054.65 585.97 1067.46 572.393 1083.63 562.629C1100.11 552.866 1118.87 547.984 1139.92 547.984C1160.37 547.984 1177.76 552.408 1192.1 561.256C1206.74 570.104 1217.88 582.766 1225.51 599.242C1233.44 615.413 1237.41 634.94 1237.41 657.823V672.926H1063.95V646.382H1209.95L1202.17 652.789C1202.17 628.99 1196.98 610.684 1186.6 597.869C1176.23 584.75 1160.98 578.19 1140.84 578.19C1126.19 578.19 1113.68 581.699 1103.31 588.716C1092.94 595.428 1085 605.039 1079.51 617.549C1074.02 629.753 1071.27 643.941 1071.27 660.111V662.857C1071.27 681.164 1074.17 696.572 1079.97 709.081C1086.07 721.286 1094.77 730.592 1106.06 736.999C1117.34 743.101 1131.23 746.152 1147.7 746.152C1160.82 746.152 1173.48 744.169 1185.69 740.202C1198.2 735.931 1209.95 729.371 1220.93 720.523L1233.74 749.356C1223.68 758.509 1210.71 765.832 1194.84 771.324C1179.28 776.51 1163.57 779.104 1147.7 779.104ZM1366.09 779.104C1354.5 779.104 1343.05 778.036 1331.77 775.9C1320.78 773.764 1310.56 770.713 1301.1 766.747C1291.95 762.475 1283.86 757.441 1276.85 751.644L1289.2 722.811C1296.53 728.303 1304.46 733.032 1313 736.999C1321.54 740.66 1330.39 743.406 1339.55 745.237C1348.7 747.067 1357.85 747.983 1367.01 747.983C1383.79 747.983 1396.45 744.932 1404.99 738.83C1413.53 732.727 1417.81 724.642 1417.81 714.573C1417.81 706.03 1414.91 699.47 1409.11 694.894C1403.62 690.012 1394.92 686.351 1383.02 683.91L1340.46 675.214C1321.54 670.943 1307.2 663.925 1297.44 654.162C1287.98 644.093 1283.25 631.279 1283.25 615.718C1283.25 601.988 1286.91 590.089 1294.24 580.021C1301.87 569.647 1312.39 561.714 1325.82 556.222C1339.24 550.73 1354.65 547.984 1372.04 547.984C1382.41 547.984 1392.48 549.052 1402.25 551.188C1412.01 553.324 1421.16 556.375 1429.71 560.341C1438.25 564.307 1445.42 569.494 1451.22 575.902L1438.4 604.277C1432.6 598.785 1426.04 594.208 1418.72 590.547C1411.4 586.885 1403.77 584.139 1395.84 582.309C1387.91 580.173 1379.97 579.105 1372.04 579.105C1355.56 579.105 1343.05 582.309 1334.51 588.716C1326.27 595.123 1322.15 603.514 1322.15 613.888C1322.15 621.82 1324.6 628.38 1329.48 633.567C1334.66 638.754 1342.75 642.568 1353.73 645.009L1396.3 653.704C1416.13 657.976 1431.08 664.841 1441.15 674.299C1451.22 683.452 1456.25 695.962 1456.25 711.827C1456.25 725.862 1452.44 737.914 1444.81 747.983C1437.49 758.051 1426.96 765.832 1413.23 771.324C1399.81 776.51 1384.09 779.104 1366.09 779.104ZM1506.32 498.557V453.706H1556.2V498.557H1506.32ZM1510.44 774.985V552.103H1552.08V774.985H1510.44ZM1713.78 779.104C1691.81 779.104 1672.74 774.375 1656.57 764.916C1640.4 755.458 1627.89 742.033 1619.04 724.642C1610.19 707.251 1605.77 686.808 1605.77 663.315C1605.77 639.822 1610.19 619.532 1619.04 602.446C1627.89 585.055 1640.4 571.63 1656.57 562.172C1672.74 552.713 1691.81 547.984 1713.78 547.984C1735.75 547.984 1754.82 552.713 1770.99 562.172C1787.16 571.63 1799.67 585.055 1808.51 602.446C1817.36 619.532 1821.79 639.822 1821.79 663.315C1821.79 686.808 1817.36 707.251 1808.51 724.642C1799.67 742.033 1787.16 755.458 1770.99 764.916C1754.82 774.375 1735.75 779.104 1713.78 779.104ZM1713.78 746.152C1733.92 746.152 1749.93 739.135 1761.83 725.1C1773.73 710.76 1779.68 690.165 1779.68 663.315C1779.68 636.466 1773.73 616.023 1761.83 601.988C1749.93 587.953 1733.92 580.936 1713.78 580.936C1693.95 580.936 1677.93 587.953 1665.72 601.988C1653.82 616.023 1647.87 636.466 1647.87 663.315C1647.87 690.165 1653.82 710.76 1665.72 725.1C1677.93 739.135 1693.95 746.152 1713.78 746.152ZM1875.14 774.985V552.103H1915.87V600.615H1910.83C1917.24 583.224 1927.62 570.104 1941.96 561.256C1956.6 552.408 1973.23 547.984 1991.84 547.984C2009.84 547.984 2024.64 551.188 2036.23 557.595C2047.83 564.002 2056.52 573.918 2062.32 587.343C2068.12 600.463 2071.02 616.939 2071.02 636.771V774.985H2029.37V639.059C2029.37 625.939 2027.69 615.108 2024.33 606.565C2020.98 598.022 2015.64 591.767 2008.32 587.801C2001.3 583.834 1992.3 581.851 1981.31 581.851C1968.5 581.851 1957.21 584.597 1947.45 590.089C1937.68 595.581 1930.06 603.361 1924.56 613.43C1919.38 623.498 1916.78 635.245 1916.78 648.67V774.985H1875.14ZM2137.04 774.985V552.103H2177.77V600.615H2172.74C2179.15 583.224 2189.52 570.104 2203.86 561.256C2218.51 552.408 2235.13 547.984 2253.75 547.984C2271.75 547.984 2286.54 551.188 2298.14 557.595C2309.73 564.002 2318.43 573.918 2324.23 587.343C2330.02 600.463 2332.92 616.939 2332.92 636.771V774.985H2291.27V639.059C2291.27 625.939 2289.6 615.108 2286.24 606.565C2282.88 598.022 2277.54 591.767 2270.22 587.801C2263.2 583.834 2254.2 581.851 2243.22 581.851C2230.4 581.851 2219.12 584.597 2209.35 590.089C2199.59 595.581 2191.96 603.361 2186.47 613.43C2181.28 623.498 2178.69 635.245 2178.69 648.67V774.985H2137.04ZM2501.92 779.104C2477.82 779.104 2457.07 774.527 2439.68 765.374C2422.59 755.916 2409.32 742.643 2399.86 725.557C2390.4 708.166 2385.67 687.724 2385.67 664.23C2385.67 641.042 2390.25 620.752 2399.4 603.361C2408.86 585.97 2421.68 572.393 2437.85 562.629C2454.32 552.866 2473.09 547.984 2494.14 547.984C2514.58 547.984 2531.97 552.408 2546.31 561.256C2560.96 570.104 2572.1 582.766 2579.72 599.242C2587.66 615.413 2591.62 634.94 2591.62 657.823V672.926H2418.17V646.382H2564.16L2556.38 652.789C2556.38 628.99 2551.2 610.684 2540.82 597.869C2530.45 584.75 2515.19 578.19 2495.06 578.19C2480.41 578.19 2467.9 581.699 2457.53 588.716C2447.15 595.428 2439.22 605.039 2433.73 617.549C2428.24 629.753 2425.49 643.941 2425.49 660.111V662.857C2425.49 681.164 2428.39 696.572 2434.19 709.081C2440.29 721.286 2448.98 730.592 2460.27 736.999C2471.56 743.101 2485.44 746.152 2501.92 746.152C2515.04 746.152 2527.7 744.169 2539.91 740.202C2552.42 735.931 2564.16 729.371 2575.15 720.523L2587.96 749.356C2577.89 758.509 2564.93 765.832 2549.06 771.324C2533.5 776.51 2517.79 779.104 2501.92 779.104ZM2714.36 779.104C2690.56 779.104 2672.71 772.391 2660.81 758.967C2649.22 745.237 2643.42 725.557 2643.42 699.928V452.333H2685.07V696.725C2685.07 707.098 2686.44 715.946 2689.19 723.269C2692.24 730.286 2696.51 735.473 2702 738.83C2707.8 742.186 2714.97 743.864 2723.51 743.864C2726.87 743.864 2730.22 743.711 2733.58 743.406C2737.24 743.101 2740.6 742.491 2743.65 741.575L2742.73 775.443C2737.85 776.663 2732.97 777.578 2728.09 778.189C2723.51 778.799 2718.93 779.104 2714.36 779.104ZM2852.01 779.104C2828.22 779.104 2810.37 772.391 2798.47 758.967C2786.87 745.237 2781.08 725.557 2781.08 699.928V452.333H2822.72V696.725C2822.72 707.098 2824.1 715.946 2826.84 723.269C2829.89 730.286 2834.17 735.473 2839.66 738.83C2845.45 742.186 2852.62 743.864 2861.17 743.864C2864.52 743.864 2867.88 743.711 2871.24 743.406C2874.9 743.101 2878.25 742.491 2881.3 741.575L2880.39 775.443C2875.51 776.663 2870.63 777.578 2865.74 778.189C2861.17 778.799 2856.59 779.104 2852.01 779.104ZM3019.47 779.104C2995.37 779.104 2974.62 774.527 2957.23 765.374C2940.14 755.916 2926.87 742.643 2917.41 725.557C2907.96 708.166 2903.23 687.724 2903.23 664.23C2903.23 641.042 2907.8 620.752 2916.96 603.361C2926.41 585.97 2939.23 572.393 2955.4 562.629C2971.88 552.866 2990.64 547.984 3011.69 547.984C3032.13 547.984 3049.53 552.408 3063.87 561.256C3078.51 570.104 3089.65 582.766 3097.28 599.242C3105.21 615.413 3109.17 634.94 3109.17 657.823V672.926H2935.72V646.382H3081.71L3073.93 652.789C3073.93 628.99 3068.75 610.684 3058.37 597.869C3048 584.75 3032.74 578.19 3012.61 578.19C2997.96 578.19 2985.45 581.699 2975.08 588.716C2964.71 595.428 2956.77 605.039 2951.28 617.549C2945.79 629.753 2943.04 643.941 2943.04 660.111V662.857C2943.04 681.164 2945.94 696.572 2951.74 709.081C2957.84 721.286 2966.54 730.592 2977.83 736.999C2989.11 743.101 3003 746.152 3019.47 746.152C3032.59 746.152 3045.25 744.169 3057.46 740.202C3069.97 735.931 3081.71 729.371 3092.7 720.523L3105.51 749.356C3095.44 758.509 3082.48 765.832 3066.61 771.324C3051.05 776.51 3035.34 779.104 3019.47 779.104ZM3237.86 779.104C3226.27 779.104 3214.82 778.036 3203.54 775.9C3192.55 773.764 3182.33 770.713 3172.87 766.747C3163.72 762.475 3155.63 757.441 3148.62 751.644L3160.97 722.811C3168.3 728.303 3176.23 733.032 3184.77 736.999C3193.31 740.66 3202.16 743.406 3211.32 745.237C3220.47 747.067 3229.62 747.983 3238.78 747.983C3255.56 747.983 3268.22 744.932 3276.76 738.83C3285.3 732.727 3289.58 724.642 3289.58 714.573C3289.58 706.03 3286.68 699.47 3280.88 694.894C3275.39 690.012 3266.69 686.351 3254.79 683.91L3212.23 675.214C3193.31 670.943 3178.97 663.925 3169.21 654.162C3159.75 644.093 3155.02 631.279 3155.02 615.718C3155.02 601.988 3158.68 590.089 3166.01 580.021C3173.63 569.647 3184.16 561.714 3197.59 556.222C3211.01 550.73 3226.42 547.984 3243.81 547.984C3254.18 547.984 3264.25 549.052 3274.02 551.188C3283.78 553.324 3292.93 556.375 3301.48 560.341C3310.02 564.307 3317.19 569.494 3322.99 575.902L3310.17 604.277C3304.37 598.785 3297.81 594.208 3290.49 590.547C3283.17 586.885 3275.54 584.139 3267.61 582.309C3259.68 580.173 3251.74 579.105 3243.81 579.105C3227.33 579.105 3214.82 582.309 3206.28 588.716C3198.04 595.123 3193.92 603.514 3193.92 613.888C3193.92 621.82 3196.37 628.38 3201.25 633.567C3206.43 638.754 3214.52 642.568 3225.5 645.009L3268.07 653.704C3287.9 657.976 3302.85 664.841 3312.92 674.299C3322.99 683.452 3328.02 695.962 3328.02 711.827C3328.02 725.862 3324.21 737.914 3316.58 747.983C3309.26 758.051 3298.73 765.832 3285 771.324C3271.57 776.51 3255.86 779.104 3237.86 779.104Z" fill="#0051FF"/>
<path d="M724.469 1198.36V893.104H765.201V944.362H760.624C765.506 927.581 775.117 914.157 789.457 904.088C803.797 894.02 821.035 888.985 841.172 888.985C861.004 888.985 878.243 893.715 892.888 903.173C907.533 912.326 918.975 925.598 927.212 942.989C935.45 960.075 939.569 980.517 939.569 1004.32C939.569 1027.81 935.45 1048.4 927.212 1066.1C919.28 1083.49 907.838 1096.92 892.888 1106.37C878.243 1115.53 861.004 1120.1 841.172 1120.1C821.34 1120.1 804.254 1115.07 789.914 1105C775.574 1094.93 765.964 1081.66 761.082 1065.18H766.116V1198.36H724.469ZM831.561 1087.15C851.698 1087.15 867.717 1080.13 879.616 1066.1C891.515 1051.76 897.464 1031.17 897.464 1004.32C897.464 977.466 891.515 957.024 879.616 942.989C867.717 928.954 851.698 921.937 831.561 921.937C811.424 921.937 795.406 928.954 783.507 942.989C771.608 957.024 765.658 977.466 765.658 1004.32C765.658 1031.17 771.608 1051.76 783.507 1066.1C795.406 1080.13 811.424 1087.15 831.561 1087.15ZM1096.05 1120.1C1071.95 1120.1 1051.2 1115.53 1033.81 1106.37C1016.72 1096.92 1003.45 1083.64 993.991 1066.56C984.533 1049.17 979.804 1028.72 979.804 1005.23C979.804 982.043 984.381 961.753 993.534 944.362C1002.99 926.971 1015.81 913.394 1031.98 903.631C1048.45 893.867 1067.22 888.985 1088.27 888.985C1108.71 888.985 1126.1 893.41 1140.44 902.258C1155.09 911.106 1166.22 923.768 1173.85 940.243C1181.78 956.414 1185.75 975.941 1185.75 998.824V1013.93H1012.3V987.382H1158.29L1150.51 993.79C1150.51 969.991 1145.32 951.685 1134.95 938.87C1124.58 925.751 1109.32 919.191 1089.18 919.191C1074.54 919.191 1062.03 922.7 1051.66 929.717C1041.28 936.43 1033.35 946.04 1027.86 958.55C1022.37 970.754 1019.62 984.942 1019.62 1001.11V1003.86C1019.62 1022.16 1022.52 1037.57 1028.32 1050.08C1034.42 1062.29 1043.11 1071.59 1054.4 1078C1065.69 1084.1 1079.57 1087.15 1096.05 1087.15C1109.17 1087.15 1121.83 1085.17 1134.04 1081.2C1146.54 1076.93 1158.29 1070.37 1169.28 1061.52L1182.09 1090.36C1172.02 1099.51 1159.05 1106.83 1143.19 1112.32C1127.63 1117.51 1111.92 1120.1 1096.05 1120.1ZM1237.55 1115.98V893.104H1278.28V946.193H1273.7C1278.59 927.887 1287.43 914.157 1300.25 905.004C1313.06 895.545 1330 890.053 1351.05 888.528L1365.24 887.155L1368.44 923.31L1342.35 925.598C1322.22 927.734 1306.66 934.294 1295.67 945.278C1284.99 956.262 1279.65 971.364 1279.65 990.586V1115.98H1237.55ZM1479.35 1120.1C1467.76 1120.1 1456.32 1119.04 1445.03 1116.9C1434.05 1114.76 1423.82 1111.71 1414.37 1107.75C1405.21 1103.48 1397.13 1098.44 1390.11 1092.64L1402.47 1063.81C1409.79 1069.3 1417.72 1074.03 1426.27 1078C1434.81 1081.66 1443.66 1084.41 1452.81 1086.24C1461.96 1088.07 1471.12 1088.98 1480.27 1088.98C1497.05 1088.98 1509.71 1085.93 1518.26 1079.83C1526.8 1073.73 1531.07 1065.64 1531.07 1055.57C1531.07 1047.03 1528.17 1040.47 1522.37 1035.89C1516.88 1031.01 1508.19 1027.35 1496.29 1024.91L1453.73 1016.21C1434.81 1011.94 1420.47 1004.93 1410.71 995.163C1401.25 985.094 1396.52 972.28 1396.52 956.719C1396.52 942.989 1400.18 931.09 1407.5 921.022C1415.13 910.648 1425.66 902.715 1439.08 897.223C1452.5 891.731 1467.91 888.985 1485.3 888.985C1495.68 888.985 1505.75 890.053 1515.51 892.189C1525.27 894.325 1534.43 897.376 1542.97 901.342C1551.51 905.309 1558.68 910.496 1564.48 916.903L1551.66 945.278C1545.87 939.786 1539.31 935.209 1531.99 931.548C1524.66 927.887 1517.03 925.141 1509.1 923.31C1501.17 921.174 1493.24 920.106 1485.3 920.106C1468.83 920.106 1456.32 923.31 1447.78 929.717C1439.54 936.124 1435.42 944.515 1435.42 954.889C1435.42 962.821 1437.86 969.381 1442.74 974.568C1447.93 979.755 1456.01 983.569 1467 986.009L1509.56 994.705C1529.39 998.976 1544.34 1005.84 1554.41 1015.3C1564.48 1024.45 1569.51 1036.96 1569.51 1052.83C1569.51 1066.86 1565.7 1078.91 1558.07 1088.98C1550.75 1099.05 1540.22 1106.83 1526.49 1112.32C1513.07 1117.51 1497.36 1120.1 1479.35 1120.1ZM1718.44 1120.1C1696.47 1120.1 1677.4 1115.37 1661.23 1105.92C1645.06 1096.46 1632.55 1083.03 1623.7 1065.64C1614.85 1048.25 1610.43 1027.81 1610.43 1004.32C1610.43 980.823 1614.85 960.533 1623.7 943.447C1632.55 926.056 1645.06 912.631 1661.23 903.173C1677.4 893.715 1696.47 888.985 1718.44 888.985C1740.4 888.985 1759.47 893.715 1775.64 903.173C1791.81 912.631 1804.32 926.056 1813.17 943.447C1822.02 960.533 1826.44 980.823 1826.44 1004.32C1826.44 1027.81 1822.02 1048.25 1813.17 1065.64C1804.32 1083.03 1791.81 1096.46 1775.64 1105.92C1759.47 1115.37 1740.4 1120.1 1718.44 1120.1ZM1718.44 1087.15C1738.57 1087.15 1754.59 1080.13 1766.49 1066.1C1778.39 1051.76 1784.34 1031.17 1784.34 1004.32C1784.34 977.466 1778.39 957.024 1766.49 942.989C1754.59 928.954 1738.57 921.937 1718.44 921.937C1698.6 921.937 1682.58 928.954 1670.38 942.989C1658.48 957.024 1652.53 977.466 1652.53 1004.32C1652.53 1031.17 1658.48 1051.76 1670.38 1066.1C1682.58 1080.13 1698.6 1087.15 1718.44 1087.15ZM1879.79 1115.98V893.104H1920.52V941.616H1915.49C1921.9 924.225 1932.27 911.106 1946.61 902.258C1961.26 893.41 1977.88 888.985 1996.5 888.985C2014.5 888.985 2029.29 892.189 2040.89 898.596C2052.48 905.004 2061.18 914.92 2066.98 928.344C2072.77 941.464 2075.67 957.94 2075.67 977.772V1115.98H2034.02V980.06C2034.02 966.94 2032.35 956.109 2028.99 947.566C2025.63 939.023 2020.29 932.768 2012.97 928.802C2005.95 924.836 1996.95 922.852 1985.97 922.852C1973.16 922.852 1961.87 925.598 1952.1 931.09C1942.34 936.582 1934.71 944.362 1929.22 954.431C1924.03 964.499 1921.44 976.246 1921.44 989.671V1115.98H1879.79ZM2141.7 1115.98V893.104H2182.43V941.616H2177.39C2183.8 924.225 2194.17 911.106 2208.51 902.258C2223.16 893.41 2239.79 888.985 2258.4 888.985C2276.4 888.985 2291.2 892.189 2302.79 898.596C2314.39 905.004 2323.08 914.92 2328.88 928.344C2334.68 941.464 2337.57 957.94 2337.57 977.772V1115.98H2295.93V980.06C2295.93 966.94 2294.25 956.109 2290.89 947.566C2287.54 939.023 2282.2 932.768 2274.87 928.802C2267.86 924.836 2258.86 922.852 2247.87 922.852C2235.06 922.852 2223.77 925.598 2214.01 931.09C2204.24 936.582 2196.61 944.362 2191.12 954.431C2185.94 964.499 2183.34 976.246 2183.34 989.671V1115.98H2141.7ZM2506.57 1120.1C2482.47 1120.1 2461.72 1115.53 2444.33 1106.37C2427.24 1096.92 2413.97 1083.64 2404.51 1066.56C2395.06 1049.17 2390.33 1028.72 2390.33 1005.23C2390.33 982.043 2394.9 961.753 2404.06 944.362C2413.51 926.971 2426.33 913.394 2442.5 903.631C2458.98 893.867 2477.74 888.985 2498.79 888.985C2519.23 888.985 2536.63 893.41 2550.97 902.258C2565.61 911.106 2576.75 923.768 2584.37 940.243C2592.31 956.414 2596.27 975.941 2596.27 998.824V1013.93H2422.82V987.382H2568.81L2561.03 993.79C2561.03 969.991 2555.85 951.685 2545.47 938.87C2535.1 925.751 2519.84 919.191 2499.71 919.191C2485.06 919.191 2472.55 922.7 2462.18 929.717C2451.81 936.43 2443.87 946.04 2438.38 958.55C2432.89 970.754 2430.14 984.942 2430.14 1001.11V1003.86C2430.14 1022.16 2433.04 1037.57 2438.84 1050.08C2444.94 1062.29 2453.64 1071.59 2464.92 1078C2476.21 1084.1 2490.1 1087.15 2506.57 1087.15C2519.69 1087.15 2532.35 1085.17 2544.56 1081.2C2557.07 1076.93 2568.81 1070.37 2579.8 1061.52L2592.61 1090.36C2582.54 1099.51 2569.58 1106.83 2553.71 1112.32C2538.15 1117.51 2522.44 1120.1 2506.57 1120.1ZM2719.01 1120.1C2695.21 1120.1 2677.36 1113.39 2665.46 1099.97C2653.87 1086.24 2648.07 1066.56 2648.07 1040.93V793.335H2689.72V1037.73C2689.72 1048.1 2691.09 1056.95 2693.84 1064.27C2696.89 1071.29 2701.16 1076.47 2706.65 1079.83C2712.45 1083.19 2719.62 1084.86 2728.16 1084.86C2731.52 1084.86 2734.87 1084.71 2738.23 1084.41C2741.89 1084.1 2745.25 1083.49 2748.3 1082.58L2747.38 1116.44C2742.5 1117.66 2737.62 1118.58 2732.74 1119.19C2728.16 1119.8 2723.59 1120.1 2719.01 1120.1ZM2856.66 1120.1C2832.87 1120.1 2815.02 1113.39 2803.12 1099.97C2791.52 1086.24 2785.73 1066.56 2785.73 1040.93V793.335H2827.37V1037.73C2827.37 1048.1 2828.75 1056.95 2831.49 1064.27C2834.54 1071.29 2838.82 1076.47 2844.31 1079.83C2850.1 1083.19 2857.27 1084.86 2865.82 1084.86C2869.17 1084.86 2872.53 1084.71 2875.89 1084.41C2879.55 1084.1 2882.9 1083.49 2885.95 1082.58L2885.04 1116.44C2880.16 1117.66 2875.28 1118.58 2870.39 1119.19C2865.82 1119.8 2861.24 1120.1 2856.66 1120.1ZM3024.12 1120.1C3000.02 1120.1 2979.27 1115.53 2961.88 1106.37C2944.79 1096.92 2931.52 1083.64 2922.06 1066.56C2912.6 1049.17 2907.88 1028.72 2907.88 1005.23C2907.88 982.043 2912.45 961.753 2921.61 944.362C2931.06 926.971 2943.88 913.394 2960.05 903.631C2976.52 893.867 2995.29 888.985 3016.34 888.985C3036.78 888.985 3054.17 893.41 3068.51 902.258C3083.16 911.106 3094.3 923.768 3101.92 940.243C3109.86 956.414 3113.82 975.941 3113.82 998.824V1013.93H2940.37V987.382H3086.36L3078.58 993.79C3078.58 969.991 3073.4 951.685 3063.02 938.87C3052.65 925.751 3037.39 919.191 3017.26 919.191C3002.61 919.191 2990.1 922.7 2979.73 929.717C2969.35 936.43 2961.42 946.04 2955.93 958.55C2950.44 970.754 2947.69 984.942 2947.69 1001.11V1003.86C2947.69 1022.16 2950.59 1037.57 2956.39 1050.08C2962.49 1062.29 2971.19 1071.59 2982.47 1078C2993.76 1084.1 3007.65 1087.15 3024.12 1087.15C3037.24 1087.15 3049.9 1085.17 3062.11 1081.2C3074.62 1076.93 3086.36 1070.37 3097.35 1061.52L3110.16 1090.36C3100.09 1099.51 3087.13 1106.83 3071.26 1112.32C3055.7 1117.51 3039.99 1120.1 3024.12 1120.1ZM3242.51 1120.1C3230.91 1120.1 3219.47 1119.04 3208.18 1116.9C3197.2 1114.76 3186.98 1111.71 3177.52 1107.75C3168.37 1103.48 3160.28 1098.44 3153.26 1092.64L3165.62 1063.81C3172.94 1069.3 3180.88 1074.03 3189.42 1078C3197.96 1081.66 3206.81 1084.41 3215.96 1086.24C3225.12 1088.07 3234.27 1088.98 3243.42 1088.98C3260.2 1088.98 3272.87 1085.93 3281.41 1079.83C3289.95 1073.73 3294.22 1065.64 3294.22 1055.57C3294.22 1047.03 3291.32 1040.47 3285.53 1035.89C3280.04 1031.01 3271.34 1027.35 3259.44 1024.91L3216.88 1016.21C3197.96 1011.94 3183.62 1004.93 3173.86 995.163C3164.4 985.094 3159.67 972.28 3159.67 956.719C3159.67 942.989 3163.33 931.09 3170.65 921.022C3178.28 910.648 3188.81 902.715 3202.23 897.223C3215.66 891.731 3231.07 888.985 3248.46 888.985C3258.83 888.985 3268.9 890.053 3278.66 892.189C3288.43 894.325 3297.58 897.376 3306.12 901.342C3314.66 905.309 3321.83 910.496 3327.63 916.903L3314.82 945.278C3309.02 939.786 3302.46 935.209 3295.14 931.548C3287.82 927.887 3280.19 925.141 3272.26 923.31C3264.32 921.174 3256.39 920.106 3248.46 920.106C3231.98 920.106 3219.47 923.31 3210.93 929.717C3202.69 936.124 3198.57 944.515 3198.57 954.889C3198.57 962.821 3201.01 969.381 3205.89 974.568C3211.08 979.755 3219.17 983.569 3230.15 986.009L3272.71 994.705C3292.54 998.976 3307.49 1005.84 3317.56 1015.3C3327.63 1024.45 3332.67 1036.96 3332.67 1052.83C3332.67 1066.86 3328.85 1078.91 3321.22 1088.98C3313.9 1099.05 3303.38 1106.83 3289.65 1112.32C3276.22 1117.51 3260.51 1120.1 3242.51 1120.1Z" fill="#0051FF"/>
</g>
<g filter="url(#filter1_d_78_29)">
<path fill-rule="evenodd" clip-rule="evenodd" d="M293.44 711.311L395.928 756.34L455.86 844.497L455.654 845.162L412.794 983.392L465.27 1023.93L450.911 912.67L555.049 865.678L601.683 979.025L601.756 979.203L612.739 1066.05L626.797 1095.84L703.983 1137.46L704.141 1137.63L759.811 1195.83L713.057 1242.01L712.611 1242.09L611.997 1259.68L611.743 1259.64L545.673 1247.55L507.28 1287.43L507.043 1287.68L351.854 1342.26L351.423 1342.15L190.339 1299.05L190.046 1298.47L120.969 1161.96L120.715 1161.46L152.317 1048.26L171.107 1035.49L102.738 918.735L120.318 799.743L120.428 799.003L293.44 711.311ZM291.5 1129.78L283.705 1165.87L295.691 1183.5L319.914 1196.25L358.418 1208.97L396.759 1192.92L424.846 1156.12L303.586 1100.02L291.5 1129.78ZM257.732 910.298L297.582 944.01L326.495 915.215L317.739 869.504L297.109 852.743L269.696 866.761L257.732 910.298Z" fill="white"/>
</g>
<path d="M387.56 1289.98C354.01 1299.7 323.334 1302.78 295.533 1299.22C268.197 1295.53 245.238 1286.02 226.655 1270.69C208.072 1255.37 195.068 1234.89 187.642 1209.26C181.566 1188.29 179.758 1168.11 182.218 1148.71C185.144 1129.17 191.902 1109.79 202.492 1090.56C213.549 1071.19 228.069 1051.58 246.054 1031.72L264.866 1010.36L259.537 1028.57C231.486 1011.95 210.169 995.902 195.584 980.43C181.465 964.822 171.637 947.466 166.102 928.362C159.621 905.995 159.076 884.94 164.466 865.194C170.188 844.848 181.251 827.248 197.655 812.393C214.525 797.403 235.775 786.195 261.403 778.769C285.167 771.883 306.885 770.136 326.556 773.527C346.227 776.919 363.183 784.886 377.424 797.427C391.665 809.969 401.89 826.957 408.101 848.391C412.962 865.166 414.125 882.255 411.591 899.657C409.523 916.924 402.894 935.008 391.702 953.908C380.511 972.809 363.863 993.795 341.758 1016.87L337.394 999.192L503.103 1100.43L487.726 1104.89C493.373 1082.54 495.543 1056.91 494.236 1027.99C492.928 999.078 488.653 969.506 481.41 939.279L540.821 922.064C551.095 961.01 556.035 998.975 555.64 1035.96C555.576 1072.35 550.636 1105.85 540.822 1136.47L534.654 1117.81L676.5 1199.44L590.529 1224.35L509.579 1175.07L526.354 1170.21C513.399 1198.72 494.833 1223.54 470.655 1244.69C446.944 1265.7 419.245 1280.8 387.56 1289.98ZM374.65 1232.35C399.812 1225.06 420.528 1213.76 436.797 1198.44C452.931 1182.65 465.851 1162.74 475.557 1138.72L479.131 1158.9L287.888 1045.36L317.152 1039.15L300.032 1058.51C285.7 1075.29 274.428 1090.42 266.215 1103.91C258.469 1117.27 253.72 1130.52 251.97 1143.65C250.551 1156.18 251.866 1169.44 255.917 1183.42C262.803 1207.18 276.425 1223.69 296.785 1232.95C317.475 1241.6 343.43 1241.4 374.65 1232.35ZM276.39 830.491C257.751 835.892 244.16 845.638 235.616 859.731C227.538 873.689 226.132 889.754 231.398 907.926C234.098 917.246 238.061 925.694 243.288 933.271C248.379 940.383 256.137 947.984 266.563 956.075C277.32 963.565 291.314 972.642 308.547 983.306L291.073 988.37C308.727 969.112 322.194 952.835 331.474 939.539C340.754 926.243 346.772 913.893 349.528 902.487C352.284 891.082 352.042 879.787 348.802 868.604C343.806 851.364 334.599 839.636 321.182 833.422C308.095 826.607 293.164 825.63 276.39 830.491Z" fill="#0051FF"/>
<defs>
<filter id="filter0_d_78_29" x="44.1672" y="129.025" width="3301.26" height="1077.34" filterUnits="userSpaceOnUse" color-interpolation-filters="sRGB">
<feFlood flood-opacity="0" result="BackgroundImageFix"/>
<feColorMatrix in="SourceAlpha" type="matrix" values="0 0 0 0 0 0 0 0 0 0 0 0 0 0 0 0 0 0 127 0" result="hardAlpha"/>
<feOffset dy="4"/>
<feGaussianBlur stdDeviation="2"/>
<feComposite in2="hardAlpha" operator="out"/>
<feColorMatrix type="matrix" values="0 0 0 0 0 0 0 0 0 0 0 0 0 0 0 0 0 0 0.25 0"/>
<feBlend mode="normal" in2="BackgroundImageFix" result="effect1_dropShadow_78_29"/>
<feBlend mode="normal" in="SourceGraphic" in2="effect1_dropShadow_78_29" result="shape"/>
</filter>
<filter id="filter1_d_78_29" x="93.3173" y="711.311" width="675.913" height="650.558" filterUnits="userSpaceOnUse" color-interpolation-filters="sRGB">
<feFlood flood-opacity="0" result="BackgroundImageFix"/>
<feColorMatrix in="SourceAlpha" type="matrix" values="0 0 0 0 0 0 0 0 0 0 0 0 0 0 0 0 0 0 127 0" result="hardAlpha"/>
<feOffset dy="10.184"/>
<feGaussianBlur stdDeviation="4.7101"/>
<feComposite in2="hardAlpha" operator="out"/>
<feColorMatrix type="matrix" values="0 0 0 0 0 0 0 0 0 0 0 0 0 0 0 0 0 0 0.25 0"/>
<feBlend mode="normal" in2="BackgroundImageFix" result="effect1_dropShadow_78_29"/>
<feBlend mode="normal" in="SourceGraphic" in2="effect1_dropShadow_78_29" result="shape"/>
</filter>
</defs>
</svg>
