<svg width="2881" height="931" viewBox="0 0 2881 931" fill="none" xmlns="http://www.w3.org/2000/svg">
<g filter="url(#filter0_d_78_14)">
<path d="M26.3692 417V126.527H231.554V185.034H98.8843V240.244H222.078V298.751H98.8843V358.493H231.554V417H26.3692ZM241.98 417L365.998 253.429V287.626L244.452 126.527H332.212L408.435 232.416H383.714L459.938 126.527H548.11L426.152 287.626V253.429L550.17 417H461.998L384.126 308.639H408.023L330.152 417H241.98ZM566.338 417V126.527H706.012C727.986 126.527 746.665 130.373 762.047 138.064C777.429 145.48 789.102 156.33 797.068 170.613C805.309 184.622 809.429 201.652 809.429 221.703C809.429 241.206 805.309 258.236 797.068 272.794C789.102 287.077 777.429 298.064 762.047 305.755C746.665 313.171 727.986 316.88 706.012 316.88H642.149V417H566.338ZM642.149 258.785H692.828C707.111 258.785 718.098 255.764 725.789 249.721C733.48 243.403 737.326 234.064 737.326 221.703C737.326 209.068 733.48 199.729 725.789 193.686C718.098 187.643 707.111 184.622 692.828 184.622H642.149V258.785ZM844.772 417V126.527H1049.96V185.034H917.287V240.244H1040.48V298.751H917.287V358.493H1049.96V417H844.772ZM1097.86 417V126.527H1237.53C1270.49 126.527 1295.9 134.63 1313.75 150.836C1331.88 166.768 1340.95 189.017 1340.95 217.583C1340.95 235.987 1336.83 252.055 1328.59 265.789C1320.62 279.249 1308.95 289.686 1293.57 297.103C1278.46 304.244 1259.78 307.815 1237.53 307.815L1240.83 300.399H1260.6C1272.42 300.399 1282.85 303.283 1291.92 309.051C1300.98 314.545 1308.54 323.06 1314.58 334.596L1359.9 417H1276.67L1226.41 324.708C1224.21 320.588 1221.6 317.429 1218.58 315.232C1215.56 313.034 1212.12 311.386 1208.28 310.287C1204.71 309.189 1200.72 308.639 1196.33 308.639H1173.67V417H1097.86ZM1173.67 255.077H1223.93C1238.49 255.077 1249.62 252.193 1257.31 246.425C1265 240.656 1268.84 231.729 1268.84 219.643C1268.84 208.107 1265 199.454 1257.31 193.686C1249.62 187.643 1238.49 184.622 1223.93 184.622H1173.67V255.077ZM1388.76 417V126.527H1464.58V417H1388.76ZM1517.12 417V126.527H1722.3V185.034H1589.63V240.244H1712.83V298.751H1589.63V358.493H1722.3V417H1517.12ZM1770.2 417V126.527H1825.83L1970.86 307.403H1959.32V126.527H2029.36V417H1974.15L1829.12 235.712H1840.66V417H1770.2ZM2229.11 421.532C2196.98 421.532 2169.37 415.352 2146.3 402.991C2123.23 390.631 2105.51 373.189 2093.15 350.665C2081.06 328.141 2075.02 301.772 2075.02 271.558C2075.02 241.343 2081.06 215.111 2093.15 192.862C2105.51 170.339 2123.23 152.896 2146.3 140.536C2169.37 128.175 2196.98 121.995 2229.11 121.995C2248.34 121.995 2266.88 124.879 2284.74 130.647C2302.59 136.416 2317.01 144.244 2328 154.133L2305.34 213.875C2293.25 205.085 2281.17 198.63 2269.08 194.51C2256.99 190.115 2244.63 187.918 2232 187.918C2206.45 187.918 2187.23 195.197 2174.32 209.755C2161.41 224.038 2154.95 244.639 2154.95 271.558C2154.95 298.751 2161.41 319.626 2174.32 334.184C2187.23 348.468 2206.45 355.609 2232 355.609C2244.63 355.609 2256.99 353.549 2269.08 349.429C2281.17 345.034 2293.25 338.442 2305.34 329.652L2328 389.395C2317.01 399.009 2302.59 406.837 2284.74 412.88C2266.88 418.648 2248.34 421.532 2229.11 421.532ZM2365.3 417V126.527H2570.48V185.034H2437.81V240.244H2561V298.751H2437.81V358.493H2570.48V417H2365.3ZM2722.31 421.532C2707.2 421.532 2692.37 420.296 2677.81 417.824C2663.25 415.352 2649.79 411.781 2637.43 407.112C2625.07 402.442 2614.36 396.948 2605.29 390.631L2626.31 331.712C2634.82 337.206 2644.3 342.013 2654.73 346.133C2665.17 350.253 2676.16 353.549 2687.7 356.021C2699.23 358.219 2710.77 359.317 2722.31 359.317C2740.43 359.317 2753.07 356.983 2760.21 352.313C2767.63 347.369 2771.34 341.326 2771.34 334.184C2771.34 329.79 2770.24 326.081 2768.04 323.06C2765.84 320.038 2762.13 317.429 2756.92 315.232C2751.97 312.759 2745.24 310.699 2736.73 309.051L2688.52 298.751C2662.15 293.257 2642.51 283.643 2629.6 269.91C2616.69 256.176 2610.24 238.459 2610.24 216.759C2610.24 197.532 2615.32 180.914 2625.48 166.905C2635.92 152.622 2650.34 141.635 2668.74 133.944C2687.42 125.978 2708.85 121.995 2733.02 121.995C2746.48 121.995 2759.39 123.231 2771.75 125.703C2784.38 128.175 2796.06 131.884 2806.77 136.828C2817.48 141.497 2826.55 146.991 2833.96 153.308L2812.95 208.519C2802.51 200.828 2790.29 194.922 2776.28 190.802C2762.55 186.407 2747.85 184.21 2732.19 184.21C2722.03 184.21 2713.38 185.446 2706.24 187.918C2699.1 190.115 2693.6 193.412 2689.76 197.806C2686.19 202.201 2684.4 207.283 2684.4 213.051C2684.4 218.819 2686.74 223.764 2691.4 227.884C2696.35 231.729 2705.28 235.025 2718.19 237.772L2765.98 248.073C2792.62 253.841 2812.54 263.317 2825.72 276.502C2838.91 289.686 2845.5 306.854 2845.5 328.004C2845.5 346.682 2840.42 363.163 2830.25 377.446C2820.09 391.455 2805.81 402.305 2787.4 409.996C2769 417.687 2747.3 421.532 2722.31 421.532Z" fill="#0051FF"/>
<path d="M28.6366 813.383V551.731H63.5497V595.667H59.6269C63.8113 581.283 72.0492 569.776 84.3407 561.146C96.6322 552.516 111.408 548.2 128.669 548.2C145.668 548.2 160.443 552.254 172.997 560.361C185.55 568.207 195.357 579.583 202.418 594.49C209.479 609.135 213.009 626.657 213.009 647.056C213.009 667.193 209.479 684.845 202.418 700.014C195.618 714.92 185.811 726.427 172.997 734.535C160.443 742.38 145.668 746.303 128.669 746.303C111.67 746.303 97.0245 741.988 84.733 733.358C72.4415 724.727 64.2035 713.351 60.0192 699.229H64.3343V813.383H28.6366ZM120.431 718.059C137.691 718.059 151.421 712.044 161.62 700.014C171.82 687.722 176.919 670.069 176.919 647.056C176.919 624.042 171.82 606.52 161.62 594.49C151.421 582.46 137.691 576.445 120.431 576.445C103.17 576.445 89.4404 582.46 79.241 594.49C69.0417 606.52 63.942 624.042 63.942 647.056C63.942 670.069 69.0417 687.722 79.241 700.014C89.4404 712.044 103.17 718.059 120.431 718.059ZM258.873 742.772V551.731H293.786V597.236H289.863C294.047 581.544 301.631 569.776 312.615 561.93C323.599 553.823 338.114 549.116 356.159 547.808L368.319 546.631L371.065 577.622L348.705 579.583C331.445 581.414 318.107 587.036 308.692 596.451C299.539 605.866 294.963 618.811 294.963 635.287V742.772H258.873ZM480.668 746.303C461.839 746.303 445.494 742.249 431.633 734.142C417.773 726.035 407.05 714.528 399.466 699.621C391.882 684.715 388.09 667.193 388.09 647.056C388.09 626.918 391.882 609.527 399.466 594.882C407.05 579.975 417.773 568.468 431.633 560.361C445.494 552.254 461.839 548.2 480.668 548.2C499.498 548.2 515.843 552.254 529.704 560.361C543.564 568.468 554.287 579.975 561.871 594.882C569.455 609.527 573.247 626.918 573.247 647.056C573.247 667.193 569.455 684.715 561.871 699.621C554.287 714.528 543.564 726.035 529.704 734.142C515.843 742.249 499.498 746.303 480.668 746.303ZM480.668 718.059C497.929 718.059 511.659 712.044 521.858 700.014C532.057 687.722 537.157 670.069 537.157 647.056C537.157 624.042 532.057 606.52 521.858 594.49C511.659 582.46 497.929 576.445 480.668 576.445C463.67 576.445 449.94 582.46 439.479 594.49C429.279 606.52 424.18 624.042 424.18 647.056C424.18 670.069 429.279 687.722 439.479 700.014C449.94 712.044 463.67 718.059 480.668 718.059ZM628.044 742.772V579.191H590.777V551.731H637.851L628.044 561.146V546.631C628.044 520.741 634.582 501.257 647.658 488.181C660.734 474.844 680.871 467.39 708.07 465.821L724.153 464.644L726.899 492.104L708.854 493.281C698.132 493.804 689.502 496.027 682.964 499.95C676.426 503.611 671.587 508.972 668.449 516.033C665.311 522.833 663.742 531.463 663.742 541.924V557.615L658.642 551.731H717.877V579.191H663.742V742.772H628.044ZM754.463 742.772V579.191H717.196V551.731H764.27L754.463 561.146V546.631C754.463 520.741 761.001 501.257 774.077 488.181C787.153 474.844 807.291 467.39 834.489 465.821L850.572 464.644L853.318 492.104L835.273 493.281C824.551 493.804 815.921 496.027 809.383 499.95C802.845 503.611 798.007 508.972 794.868 516.033C791.73 522.833 790.161 531.463 790.161 541.924V557.615L785.061 551.731H844.296V579.191H790.161V742.772H754.463ZM959.694 746.303C939.034 746.303 921.251 742.38 906.344 734.535C891.699 726.427 880.322 715.051 872.215 700.406C864.108 685.499 860.055 667.977 860.055 647.84C860.055 627.964 863.977 610.573 871.823 595.667C879.93 580.76 890.914 569.122 904.775 560.753C918.897 552.385 934.98 548.2 953.025 548.2C970.547 548.2 985.454 551.992 997.746 559.577C1010.3 567.161 1019.84 578.014 1026.38 592.136C1033.18 605.997 1036.58 622.734 1036.58 642.348V655.293H887.907V632.541H1013.04L1006.38 638.033C1006.38 617.634 1001.93 601.943 993.038 590.959C984.147 579.714 971.07 574.091 953.81 574.091C941.257 574.091 930.535 577.099 921.643 583.114C912.751 588.867 905.952 597.105 901.244 607.827C896.537 618.288 894.183 630.449 894.183 644.31V646.663C894.183 662.355 896.668 675.561 901.636 686.284C906.867 696.745 914.32 704.721 923.997 710.213C933.673 715.443 945.572 718.059 959.694 718.059C970.94 718.059 981.793 716.359 992.254 712.959C1002.98 709.298 1013.04 703.675 1022.46 696.091L1033.44 720.805C1024.81 728.65 1013.7 734.927 1000.1 739.634C986.762 744.08 973.293 746.303 959.694 746.303ZM1146.88 746.303C1136.95 746.303 1127.14 745.388 1117.46 743.557C1108.05 741.726 1099.29 739.111 1091.18 735.711C1083.33 732.05 1076.4 727.735 1070.39 722.766L1080.98 698.052C1087.26 702.76 1094.06 706.813 1101.38 710.213C1108.7 713.351 1116.29 715.705 1124.13 717.274C1131.98 718.843 1139.82 719.628 1147.67 719.628C1162.05 719.628 1172.9 717.013 1180.23 711.782C1187.55 706.552 1191.21 699.621 1191.21 690.991C1191.21 683.669 1188.73 678.046 1183.76 674.123C1179.05 669.939 1171.6 666.8 1161.4 664.708L1124.92 657.255C1108.7 653.594 1096.41 647.579 1088.04 639.21C1079.93 630.58 1075.88 619.596 1075.88 606.258C1075.88 594.49 1079.02 584.29 1085.3 575.66C1091.83 566.768 1100.86 559.969 1112.36 555.261C1123.87 550.554 1137.08 548.2 1151.98 548.2C1160.87 548.2 1169.51 549.116 1177.87 550.946C1186.24 552.777 1194.09 555.392 1201.41 558.792C1208.73 562.192 1214.88 566.638 1219.85 572.13L1208.86 596.451C1203.9 591.744 1198.27 587.821 1192 584.683C1185.72 581.544 1179.18 579.191 1172.38 577.622C1165.58 575.791 1158.78 574.876 1151.98 574.876C1137.86 574.876 1127.14 577.622 1119.82 583.114C1112.75 588.605 1109.22 595.797 1109.22 604.689C1109.22 611.489 1111.32 617.111 1115.5 621.557C1119.95 626.003 1126.88 629.272 1136.29 631.364L1172.77 638.818C1189.77 642.479 1202.59 648.363 1211.22 656.47C1219.85 664.316 1224.16 675.038 1224.16 688.637C1224.16 700.667 1220.89 710.998 1214.36 719.628C1208.08 728.258 1199.06 734.927 1187.29 739.634C1175.78 744.08 1162.31 746.303 1146.88 746.303ZM1267.08 505.834V467.39H1309.84V505.834H1267.08ZM1270.61 742.772V551.731H1306.31V742.772H1270.61ZM1444.9 746.303C1426.07 746.303 1409.73 742.249 1395.87 734.142C1382.01 726.035 1371.28 714.528 1363.7 699.621C1356.11 684.715 1352.32 667.193 1352.32 647.056C1352.32 626.918 1356.11 609.527 1363.7 594.882C1371.28 579.975 1382.01 568.468 1395.87 560.361C1409.73 552.254 1426.07 548.2 1444.9 548.2C1463.73 548.2 1480.08 552.254 1493.94 560.361C1507.8 568.468 1518.52 579.975 1526.1 594.882C1533.69 609.527 1537.48 626.918 1537.48 647.056C1537.48 667.193 1533.69 684.715 1526.1 699.621C1518.52 714.528 1507.8 726.035 1493.94 734.142C1480.08 742.249 1463.73 746.303 1444.9 746.303ZM1444.9 718.059C1462.16 718.059 1475.89 712.044 1486.09 700.014C1496.29 687.722 1501.39 670.069 1501.39 647.056C1501.39 624.042 1496.29 606.52 1486.09 594.49C1475.89 582.46 1462.16 576.445 1444.9 576.445C1427.9 576.445 1414.17 582.46 1403.71 594.49C1393.51 606.52 1388.41 624.042 1388.41 647.056C1388.41 670.069 1393.51 687.722 1403.71 700.014C1414.17 712.044 1427.9 718.059 1444.9 718.059ZM1583.21 742.772V551.731H1618.12V593.313H1613.81C1619.3 578.406 1628.19 567.161 1640.48 559.577C1653.03 551.992 1667.29 548.2 1683.24 548.2C1698.67 548.2 1711.35 550.946 1721.29 556.438C1731.23 561.93 1738.68 570.43 1743.65 581.937C1748.62 593.182 1751.11 607.304 1751.11 624.303V742.772H1715.41V626.265C1715.41 615.019 1713.97 605.735 1711.09 598.413C1708.22 591.09 1703.64 585.729 1697.36 582.329C1691.35 578.929 1683.63 577.229 1674.22 577.229C1663.23 577.229 1653.56 579.583 1645.19 584.29C1636.82 588.998 1630.28 595.667 1625.58 604.297C1621.13 612.927 1618.91 622.996 1618.91 634.503V742.772H1583.21ZM1807.7 742.772V551.731H1842.61V593.313H1838.3C1843.79 578.406 1852.68 567.161 1864.97 559.577C1877.52 551.992 1891.78 548.2 1907.73 548.2C1923.16 548.2 1935.84 550.946 1945.78 556.438C1955.72 561.93 1963.17 570.43 1968.14 581.937C1973.11 593.182 1975.6 607.304 1975.6 624.303V742.772H1939.9V626.265C1939.9 615.019 1938.46 605.735 1935.58 598.413C1932.71 591.09 1928.13 585.729 1921.85 582.329C1915.84 578.929 1908.12 577.229 1898.71 577.229C1887.72 577.229 1878.05 579.583 1869.68 584.29C1861.31 588.998 1854.77 595.667 1850.06 604.297C1845.62 612.927 1843.4 622.996 1843.4 634.503V742.772H1807.7ZM2120.45 746.303C2099.79 746.303 2082.01 742.38 2067.1 734.535C2052.46 726.427 2041.08 715.051 2032.97 700.406C2024.87 685.499 2020.81 667.977 2020.81 647.84C2020.81 627.964 2024.73 610.573 2032.58 595.667C2040.69 580.76 2051.67 569.122 2065.53 560.753C2079.65 552.385 2095.74 548.2 2113.78 548.2C2131.3 548.2 2146.21 551.992 2158.5 559.577C2171.06 567.161 2180.6 578.014 2187.14 592.136C2193.94 605.997 2197.34 622.734 2197.34 642.348V655.293H2048.66V632.541H2173.8L2167.13 638.033C2167.13 617.634 2162.69 601.943 2153.8 590.959C2144.9 579.714 2131.83 574.091 2114.57 574.091C2102.01 574.091 2091.29 577.099 2082.4 583.114C2073.51 588.867 2066.71 597.105 2062 607.827C2057.29 618.288 2054.94 630.449 2054.94 644.31V646.663C2054.94 662.355 2057.42 675.561 2062.39 686.284C2067.62 696.745 2075.08 704.721 2084.75 710.213C2094.43 715.443 2106.33 718.059 2120.45 718.059C2131.7 718.059 2142.55 716.359 2153.01 712.959C2163.73 709.298 2173.8 703.675 2183.22 696.091L2194.2 720.805C2185.57 728.65 2174.46 734.927 2160.86 739.634C2147.52 744.08 2134.05 746.303 2120.45 746.303ZM2302.54 746.303C2282.14 746.303 2266.84 740.55 2256.64 729.043C2246.71 717.274 2241.74 700.406 2241.74 678.438V466.213H2277.43V675.692C2277.43 684.584 2278.61 692.168 2280.97 698.445C2283.58 704.46 2287.24 708.905 2291.95 711.782C2296.92 714.659 2303.06 716.097 2310.39 716.097C2313.26 716.097 2316.14 715.966 2319.02 715.705C2322.16 715.443 2325.03 714.92 2327.65 714.136L2326.86 743.165C2322.68 744.211 2318.49 744.995 2314.31 745.518C2310.39 746.041 2306.46 746.303 2302.54 746.303ZM2420.53 746.303C2400.13 746.303 2384.83 740.55 2374.64 729.043C2364.7 717.274 2359.73 700.406 2359.73 678.438V466.213H2395.43V675.692C2395.43 684.584 2396.6 692.168 2398.96 698.445C2401.57 704.46 2405.23 708.905 2409.94 711.782C2414.91 714.659 2421.06 716.097 2428.38 716.097C2431.25 716.097 2434.13 715.966 2437.01 715.705C2440.15 715.443 2443.02 714.92 2445.64 714.136L2444.85 743.165C2440.67 744.211 2436.48 744.995 2432.3 745.518C2428.38 746.041 2424.46 746.303 2420.53 746.303ZM2564.07 746.303C2543.41 746.303 2525.62 742.38 2510.72 734.535C2496.07 726.427 2484.7 715.051 2476.59 700.406C2468.48 685.499 2464.43 667.977 2464.43 647.84C2464.43 627.964 2468.35 610.573 2476.2 595.667C2484.3 580.76 2495.29 569.122 2509.15 560.753C2523.27 552.385 2539.35 548.2 2557.4 548.2C2574.92 548.2 2589.83 551.992 2602.12 559.577C2614.67 567.161 2624.22 578.014 2630.76 592.136C2637.56 605.997 2640.95 622.734 2640.95 642.348V655.293H2492.28V632.541H2617.42L2610.75 638.033C2610.75 617.634 2606.3 601.943 2597.41 590.959C2588.52 579.714 2575.44 574.091 2558.18 574.091C2545.63 574.091 2534.91 577.099 2526.02 583.114C2517.12 588.867 2510.32 597.105 2505.62 607.827C2500.91 618.288 2498.56 630.449 2498.56 644.31V646.663C2498.56 662.355 2501.04 675.561 2506.01 686.284C2511.24 696.745 2518.69 704.721 2528.37 710.213C2538.05 715.443 2549.95 718.059 2564.07 718.059C2575.31 718.059 2586.17 716.359 2596.63 712.959C2607.35 709.298 2617.42 703.675 2626.83 696.091L2637.82 720.805C2629.19 728.65 2618.07 734.927 2604.47 739.634C2591.14 744.08 2577.67 746.303 2564.07 746.303ZM2751.26 746.303C2741.32 746.303 2731.51 745.388 2721.84 743.557C2712.42 741.726 2703.66 739.111 2695.55 735.711C2687.71 732.05 2680.78 727.735 2674.76 722.766L2685.35 698.052C2691.63 702.76 2698.43 706.813 2705.75 710.213C2713.07 713.351 2720.66 715.705 2728.5 717.274C2736.35 718.843 2744.2 719.628 2752.04 719.628C2766.43 719.628 2777.28 717.013 2784.6 711.782C2791.92 706.552 2795.58 699.621 2795.58 690.991C2795.58 683.669 2793.1 678.046 2788.13 674.123C2783.42 669.939 2775.97 666.8 2765.77 664.708L2729.29 657.255C2713.07 653.594 2700.78 647.579 2692.41 639.21C2684.31 630.58 2680.25 619.596 2680.25 606.258C2680.25 594.49 2683.39 584.29 2689.67 575.66C2696.21 566.768 2705.23 559.969 2716.74 555.261C2728.24 550.554 2741.45 548.2 2756.36 548.2C2765.25 548.2 2773.88 549.116 2782.25 550.946C2790.62 552.777 2798.46 555.392 2805.78 558.792C2813.11 562.192 2819.25 566.638 2824.22 572.13L2813.24 596.451C2808.27 591.744 2802.65 587.821 2796.37 584.683C2790.09 581.544 2783.55 579.191 2776.76 577.622C2769.96 575.791 2763.16 574.876 2756.36 574.876C2742.23 574.876 2731.51 577.622 2724.19 583.114C2717.13 588.605 2713.6 595.797 2713.6 604.689C2713.6 611.489 2715.69 617.111 2719.87 621.557C2724.32 626.003 2731.25 629.272 2740.67 631.364L2777.15 638.818C2794.15 642.479 2806.96 648.363 2815.59 656.47C2824.22 664.316 2828.54 675.038 2828.54 688.637C2828.54 700.667 2825.27 710.998 2818.73 719.628C2812.45 728.258 2803.43 734.927 2791.66 739.634C2780.15 744.08 2766.69 746.303 2751.26 746.303Z" fill="#0051FF"/>
</g>
<defs>
<filter id="filter0_d_78_14" x="22.3691" y="121.995" width="2827.13" height="699.388" filterUnits="userSpaceOnUse" color-interpolation-filters="sRGB">
<feFlood flood-opacity="0" result="BackgroundImageFix"/>
<feColorMatrix in="SourceAlpha" type="matrix" values="0 0 0 0 0 0 0 0 0 0 0 0 0 0 0 0 0 0 127 0" result="hardAlpha"/>
<feOffset dy="4"/>
<feGaussianBlur stdDeviation="2"/>
<feComposite in2="hardAlpha" operator="out"/>
<feColorMatrix type="matrix" values="0 0 0 0 0 0 0 0 0 0 0 0 0 0 0 0 0 0 0.25 0"/>
<feBlend mode="normal" in2="BackgroundImageFix" result="effect1_dropShadow_78_14"/>
<feBlend mode="normal" in="SourceGraphic" in2="effect1_dropShadow_78_14" result="shape"/>
</filter>
</defs>
</svg>
