<svg width="3189" height="968" viewBox="0 0 3189 968" fill="none" xmlns="http://www.w3.org/2000/svg">
<path d="M34.0134 417V126.461H236.773V184.981H109.842V243.501H227.706V301.609H109.842V417H34.0134ZM409.567 421.533C387.588 421.533 367.531 417.962 349.399 410.818C331.266 403.675 315.605 393.51 302.418 380.322C289.505 366.86 279.477 350.925 272.334 332.517C265.465 314.109 262.031 293.778 262.031 271.524C262.031 248.995 265.465 228.527 272.334 210.12C279.477 191.712 289.505 175.914 302.418 162.727C315.605 149.539 331.266 139.511 349.399 132.642C367.531 125.499 387.588 121.927 409.567 121.927C431.546 121.927 451.602 125.499 469.735 132.642C487.868 139.511 503.391 149.539 516.304 162.727C529.492 175.914 539.52 191.712 546.388 210.12C553.532 228.252 557.103 248.583 557.103 271.112C557.103 293.916 553.532 314.521 546.388 332.929C539.52 351.337 529.492 367.272 516.304 380.734C503.391 393.922 487.868 404.087 469.735 411.23C451.602 418.099 431.546 421.533 409.567 421.533ZM409.567 358.068C424.128 358.068 436.492 354.634 446.657 347.765C456.823 340.897 464.653 331.006 470.147 318.093C475.642 305.18 478.39 289.657 478.39 271.524C478.39 253.391 475.642 237.868 470.147 224.956C464.927 212.043 457.097 202.289 446.657 195.696C436.492 188.827 424.128 185.393 409.567 185.393C395.28 185.393 382.917 188.827 372.477 195.696C362.311 202.289 354.481 212.043 348.986 224.956C343.492 237.868 340.744 253.391 340.744 271.524C340.744 289.657 343.354 305.18 348.574 318.093C354.069 331.006 362.037 340.897 372.477 347.765C382.917 354.634 395.28 358.068 409.567 358.068ZM601.875 417V126.461H741.581C774.55 126.461 799.964 134.566 817.822 150.775C835.955 166.71 845.022 188.964 845.022 217.538C845.022 235.945 840.901 252.018 832.658 265.755C824.691 279.217 813.014 289.657 797.629 297.075C782.518 304.219 763.836 307.79 741.581 307.79L744.878 300.372H764.66C776.474 300.372 786.914 303.257 795.98 309.027C805.047 314.521 812.602 323.038 818.646 334.578L863.979 417H780.732L730.454 324.687C728.256 320.566 725.646 317.406 722.624 315.208C719.602 313.01 716.168 311.362 712.321 310.263C708.75 309.164 704.766 308.614 700.37 308.614H677.704V417H601.875ZM677.704 255.04H727.982C742.543 255.04 753.67 252.155 761.363 246.385C769.056 240.616 772.902 231.687 772.902 219.598C772.902 208.059 769.056 199.405 761.363 193.635C753.67 187.591 742.543 184.569 727.982 184.569H677.704V255.04ZM893.674 417V126.461H956.727L1056.87 305.73H1042.45L1142.18 126.461H1203.58V417H1135.17V244.325H1143.83L1068.82 374.14H1027.61L952.606 243.913H962.084V417H893.674ZM1222.04 417L1358.04 126.461H1417.79L1553.79 417H1477.96L1443.76 337.05L1472.6 358.068H1302.81L1332.07 337.05L1297.87 417H1222.04ZM1387.3 205.586L1339.49 319.741L1327.95 299.96H1447.88L1436.34 319.741L1388.12 205.586H1387.3ZM1607.2 417V188.278H1514.88V126.461H1775.34V188.278H1683.03V417H1607.2ZM1804 417V126.461H1879.83V417H1804ZM2072.51 421.533C2050.53 421.533 2030.47 417.962 2012.34 410.818C1994.2 403.675 1978.54 393.51 1965.36 380.322C1952.44 366.86 1942.41 350.925 1935.27 332.517C1928.4 314.109 1924.97 293.778 1924.97 271.524C1924.97 248.995 1928.4 228.527 1935.27 210.12C1942.41 191.712 1952.44 175.914 1965.36 162.727C1978.54 149.539 1994.2 139.511 2012.34 132.642C2030.47 125.499 2050.53 121.927 2072.51 121.927C2094.48 121.927 2114.54 125.499 2132.67 132.642C2150.81 139.511 2166.33 149.539 2179.24 162.727C2192.43 175.914 2202.46 191.712 2209.33 210.12C2216.47 228.252 2220.04 248.583 2220.04 271.112C2220.04 293.916 2216.47 314.521 2209.33 332.929C2202.46 351.337 2192.43 367.272 2179.24 380.734C2166.33 393.922 2150.81 404.087 2132.67 411.23C2114.54 418.099 2094.48 421.533 2072.51 421.533ZM2072.51 358.068C2087.07 358.068 2099.43 354.634 2109.6 347.765C2119.76 340.897 2127.59 331.006 2133.09 318.093C2138.58 305.18 2141.33 289.657 2141.33 271.524C2141.33 253.391 2138.58 237.868 2133.09 224.956C2127.87 212.043 2120.04 202.289 2109.6 195.696C2099.43 188.827 2087.07 185.393 2072.51 185.393C2058.22 185.393 2045.86 188.827 2035.42 195.696C2025.25 202.289 2017.42 212.043 2011.92 224.956C2006.43 237.868 2003.68 253.391 2003.68 271.524C2003.68 289.657 2006.29 305.18 2011.51 318.093C2017.01 331.006 2024.97 340.897 2035.42 347.765C2045.86 354.634 2058.22 358.068 2072.51 358.068ZM2264.81 417V126.461H2320.45L2465.51 307.378H2453.97V126.461H2524.03V417H2468.81L2323.75 235.671H2335.28V417H2264.81ZM2685.09 421.533C2669.98 421.533 2655.14 420.297 2640.58 417.824C2626.02 415.352 2612.56 411.78 2600.2 407.109C2587.83 402.439 2577.12 396.944 2568.05 390.625L2589.07 331.693C2597.59 337.188 2607.06 341.996 2617.5 346.117C2627.94 350.238 2638.93 353.535 2650.47 356.007C2662.01 358.205 2673.55 359.304 2685.09 359.304C2703.22 359.304 2715.86 356.969 2723.01 352.298C2730.42 347.353 2734.13 341.309 2734.13 334.165C2734.13 329.77 2733.03 326.061 2730.84 323.038C2728.64 320.016 2724.93 317.406 2719.71 315.208C2714.76 312.736 2708.03 310.675 2699.51 309.027L2651.3 298.724C2624.92 293.229 2605.28 283.613 2592.37 269.876C2579.45 256.139 2573 238.418 2573 216.713C2573 197.481 2578.08 180.86 2588.24 166.848C2598.68 152.561 2613.11 141.571 2631.52 133.879C2650.2 125.911 2671.63 121.927 2695.81 121.927C2709.27 121.927 2722.18 123.164 2734.54 125.636C2747.18 128.109 2758.86 131.818 2769.57 136.764C2780.29 141.434 2789.36 146.929 2796.77 153.248L2775.76 208.471C2765.32 200.778 2753.09 194.871 2739.08 190.75C2725.34 186.354 2710.64 184.156 2694.98 184.156C2684.82 184.156 2676.16 185.393 2669.02 187.865C2661.88 190.063 2656.38 193.36 2652.53 197.756C2648.96 202.152 2647.18 207.235 2647.18 213.004C2647.18 218.774 2649.51 223.719 2654.18 227.84C2659.13 231.687 2668.06 234.984 2680.97 237.731L2728.77 248.034C2755.42 253.803 2775.34 263.282 2788.53 276.47C2801.72 289.657 2808.31 306.829 2808.31 327.984C2808.31 346.666 2803.23 363.151 2793.06 377.437C2782.9 391.449 2768.61 402.301 2750.2 409.994C2731.8 417.687 2710.09 421.533 2685.09 421.533Z" fill="#0051FF"/>
<path d="M134.878 800.746C111.913 800.746 92.1827 795.733 75.6868 785.706C59.191 775.355 46.4148 760.962 37.3582 742.525C28.6252 723.765 24.2586 702.094 24.2586 677.512C24.2586 652.607 28.6252 631.259 37.3582 613.47C46.4148 595.68 59.191 581.934 75.6868 572.23C92.1827 562.203 111.913 557.19 134.878 557.19C149.433 557.19 163.503 559.939 177.088 565.438C190.996 570.936 202.64 578.537 212.02 588.241L200.376 610.559C190.349 600.855 179.675 593.901 168.355 589.696C157.034 585.168 146.199 582.904 135.848 582.904C109.649 582.904 89.4334 591.152 75.2017 607.648C61.2934 623.82 54.3393 647.27 54.3393 677.998C54.3393 708.402 61.2934 732.337 75.2017 749.803C89.4334 766.946 109.649 775.517 135.848 775.517C146.199 775.517 157.034 773.415 168.355 769.21C179.675 764.682 190.349 757.566 200.376 747.862L212.02 770.18C202.64 779.56 190.834 787 176.603 792.498C162.694 797.997 148.786 800.746 134.878 800.746ZM359.133 800.746C334.875 800.746 314.012 795.894 296.546 786.191C279.08 776.488 265.657 762.579 256.277 744.466C246.897 726.353 242.207 704.844 242.207 679.938C242.207 655.356 246.897 634.009 256.277 615.896C265.657 597.459 278.595 583.066 295.091 572.715C311.91 562.365 331.155 557.19 352.826 557.19C373.85 557.19 391.64 561.88 406.195 571.26C421.074 580.316 432.394 593.416 440.157 610.559C448.243 627.378 452.286 647.755 452.286 671.69V685.275H263.555V663.442H433.85L426.087 669.75C426.087 641.933 419.942 620.262 407.651 604.737C395.36 588.888 377.247 580.963 353.311 580.963C335.522 580.963 320.481 585.168 308.19 593.578C295.899 601.664 286.681 612.985 280.536 627.54C274.39 641.771 271.317 658.267 271.317 677.027V679.453C271.317 700.154 274.552 717.782 281.021 732.337C287.813 746.569 297.84 757.404 311.101 764.843C324.363 772.283 340.05 776.002 358.163 776.002C372.718 776.002 386.303 773.738 398.918 769.21C411.855 764.682 424.47 757.081 436.761 746.407L448.405 768.725C438.055 778.428 424.793 786.191 408.621 792.013C392.449 797.835 375.953 800.746 359.133 800.746ZM512.615 796.865V561.556H541.725V616.866H536.873C543.019 597.782 552.884 583.389 566.469 573.686C580.377 563.982 598.49 558.322 620.808 556.705L632.937 555.734L635.848 581.448L614.986 583.874C592.021 586.138 574.231 593.739 561.617 606.677C549.002 619.615 542.695 637.081 542.695 659.076V796.865H512.615ZM780.024 800.746C753.825 800.746 734.094 793.63 720.833 779.399C707.895 765.167 701.426 744.79 701.426 718.267V585.33H654.85V561.556H701.426V488.78H731.022V561.556H807.194V585.33H731.022V714.386C731.022 734.116 735.065 749.156 743.151 759.506C751.237 769.857 764.66 775.032 783.42 775.032C788.919 775.032 794.256 774.385 799.431 773.091C804.606 771.474 809.134 770.019 813.016 768.725L818.838 792.013C815.28 794.277 809.619 796.218 801.857 797.835C794.094 799.776 786.816 800.746 780.024 800.746ZM848.899 499.454V462.096H888.684V499.454H848.899ZM853.751 796.865V561.556H883.347V796.865H853.751ZM972.463 796.865V585.33H925.886V561.556H980.226L972.463 569.319V549.912C972.463 519.508 979.902 496.543 994.781 481.018C1009.66 465.169 1032.46 456.436 1063.19 454.818L1079.69 453.848L1082.11 477.622L1060.28 479.077C1047.02 479.724 1036.02 482.797 1027.29 488.295C1018.88 493.47 1012.57 501.072 1008.37 511.098C1004.16 520.802 1002.06 532.931 1002.06 547.486V566.893V561.556H1142.76V796.865H1113.16V585.33H1002.06V796.865H972.463ZM1108.31 499.454V462.096H1147.61V499.454H1108.31ZM1317.01 800.746C1294.05 800.746 1274.32 795.733 1257.82 785.706C1241.32 775.355 1228.55 760.962 1219.49 742.525C1210.76 723.765 1206.39 702.094 1206.39 677.512C1206.39 652.607 1210.76 631.259 1219.49 613.47C1228.55 595.68 1241.32 581.934 1257.82 572.23C1274.32 562.203 1294.05 557.19 1317.01 557.19C1331.57 557.19 1345.64 559.939 1359.22 565.438C1373.13 570.936 1384.77 578.537 1394.15 588.241L1382.51 610.559C1372.48 600.855 1361.81 593.901 1350.49 589.696C1339.17 585.168 1328.33 582.904 1317.98 582.904C1291.78 582.904 1271.57 591.152 1257.33 607.648C1243.43 623.82 1236.47 647.27 1236.47 677.998C1236.47 708.402 1243.43 732.337 1257.33 749.803C1271.57 766.946 1291.78 775.517 1317.98 775.517C1328.33 775.517 1339.17 773.415 1350.49 769.21C1361.81 764.682 1372.48 757.566 1382.51 747.862L1394.15 770.18C1384.77 779.56 1372.97 787 1358.74 792.498C1344.83 797.997 1330.92 800.746 1317.01 800.746ZM1514.04 800.746C1498.19 800.746 1483.96 797.673 1471.34 791.528C1459.05 785.382 1449.19 776.973 1441.75 766.299C1434.63 755.625 1431.08 743.658 1431.08 730.396C1431.08 712.93 1435.44 699.183 1444.18 689.157C1452.91 679.13 1467.63 672.176 1488.33 668.294C1509.03 664.089 1537.49 661.987 1573.72 661.987H1594.58V683.82H1574.2C1552.53 683.82 1534.26 684.467 1519.38 685.76C1504.82 687.054 1493.34 689.48 1484.93 693.038C1476.52 696.272 1470.54 700.801 1466.98 706.623C1463.74 712.445 1462.13 719.561 1462.13 727.97C1462.13 742.525 1467.14 754.331 1477.17 763.388C1487.19 772.444 1500.78 776.973 1517.92 776.973C1531.83 776.973 1543.96 773.738 1554.31 767.269C1564.98 760.477 1573.39 751.259 1579.54 739.614C1585.68 727.97 1588.76 714.709 1588.76 699.83V644.521C1588.76 622.85 1584.39 607.162 1575.66 597.459C1566.92 587.432 1553.02 582.419 1533.93 582.419C1519.7 582.419 1505.95 584.521 1492.69 588.726C1479.75 592.931 1466.33 599.561 1452.42 608.618L1440.78 585.815C1449.19 579.993 1458.41 574.979 1468.43 570.775C1478.78 566.57 1489.46 563.335 1500.46 561.071C1511.78 558.484 1522.77 557.19 1533.45 557.19C1552.53 557.19 1568.22 560.424 1580.51 566.893C1593.12 573.362 1602.34 583.066 1608.16 596.004C1614.31 608.941 1617.38 625.599 1617.38 645.976V796.865H1589.24V740.1H1594.09C1591.18 752.714 1586.01 763.55 1578.57 772.606C1571.13 781.663 1561.91 788.617 1550.91 793.469C1539.92 798.32 1527.62 800.746 1514.04 800.746ZM1783.53 800.746C1757.33 800.746 1737.6 793.63 1724.34 779.399C1711.41 765.167 1704.94 744.79 1704.94 718.267V585.33H1658.36V561.556H1704.94V488.78H1734.53V561.556H1810.7V585.33H1734.53V714.386C1734.53 734.116 1738.57 749.156 1746.66 759.506C1754.75 769.857 1768.17 775.032 1786.93 775.032C1792.43 775.032 1797.77 774.385 1802.94 773.091C1808.12 771.474 1812.64 770.019 1816.53 768.725L1822.35 792.013C1818.79 794.277 1813.13 796.218 1805.37 797.835C1797.6 799.776 1790.33 800.746 1783.53 800.746ZM1852.41 499.454V462.096H1892.19V499.454H1852.41ZM1857.26 796.865V561.556H1886.86V796.865H1857.26ZM2058.45 800.746C2036.46 800.746 2017.37 795.733 2001.2 785.706C1985.03 775.679 1972.42 761.609 1963.36 743.496C1954.63 725.383 1950.26 703.873 1950.26 678.968C1950.26 654.386 1954.63 633.038 1963.36 614.925C1972.42 596.489 1985.03 582.257 2001.2 572.23C2017.37 562.203 2036.46 557.19 2058.45 557.19C2080.77 557.19 2100.02 562.203 2116.19 572.23C2132.36 582.257 2144.81 596.489 2153.55 614.925C2162.6 633.038 2167.13 654.386 2167.13 678.968C2167.13 703.873 2162.6 725.383 2153.55 743.496C2144.81 761.609 2132.36 775.679 2116.19 785.706C2100.02 795.733 2080.77 800.746 2058.45 800.746ZM2058.45 776.002C2082.71 776.002 2101.79 767.593 2115.7 750.773C2129.93 733.954 2137.05 710.019 2137.05 678.968C2137.05 648.24 2129.93 624.467 2115.7 607.648C2101.79 590.828 2082.71 582.419 2058.45 582.419C2034.84 582.419 2015.92 590.828 2001.69 607.648C1987.46 624.467 1980.34 648.24 1980.34 678.968C1980.34 710.019 1987.46 733.954 2001.69 750.773C2015.92 767.593 2034.84 776.002 2058.45 776.002ZM2230.14 796.865V561.556H2259.25V616.381H2253.92C2260.38 596.974 2271.38 582.257 2286.91 572.23C2302.76 562.203 2320.87 557.19 2341.25 557.19C2360.01 557.19 2375.53 560.586 2387.82 567.378C2400.44 573.847 2409.82 583.874 2415.96 597.459C2422.11 611.044 2425.18 628.025 2425.18 648.402V796.865H2395.59V650.828C2395.59 635.302 2393.48 622.526 2389.28 612.499C2385.4 602.472 2379.09 595.033 2370.36 590.181C2361.62 585.33 2350.47 582.904 2336.88 582.904C2321.35 582.904 2307.77 586.138 2296.13 592.607C2284.81 599.076 2275.91 608.295 2269.44 620.262C2262.97 632.23 2259.74 646.3 2259.74 662.472V796.865H2230.14ZM2578.29 800.746C2566.64 800.746 2555.16 799.614 2543.84 797.35C2532.84 795.086 2522.49 791.69 2512.79 787.161C2503.41 782.633 2495.32 777.134 2488.53 770.665L2499.2 748.833C2507.29 755.302 2515.7 760.639 2524.43 764.843C2533.17 768.725 2542.06 771.636 2551.12 773.576C2560.5 775.517 2569.88 776.488 2579.26 776.488C2598.99 776.488 2614.03 772.768 2624.38 765.329C2634.73 757.889 2639.9 747.862 2639.9 735.248C2639.9 724.898 2636.51 716.973 2629.72 711.474C2623.25 705.652 2612.57 700.962 2597.69 697.404L2555.48 687.701C2535.11 683.173 2520.07 675.895 2510.36 665.868C2500.66 655.518 2495.81 642.257 2495.81 626.084C2495.81 612.176 2499.37 600.047 2506.48 589.696C2513.92 579.346 2524.27 571.421 2537.53 565.923C2551.12 560.101 2566.64 557.19 2584.11 557.19C2594.78 557.19 2605.13 558.484 2615.16 561.071C2625.19 563.335 2634.41 566.731 2642.82 571.26C2651.23 575.788 2658.5 581.448 2664.65 588.241L2653 610.074C2646.86 603.928 2639.9 598.753 2632.14 594.548C2624.7 590.343 2616.94 587.27 2608.85 585.33C2600.77 583.066 2592.36 581.934 2583.62 581.934C2564.86 581.934 2550.31 585.815 2539.96 593.578C2529.93 601.34 2524.92 611.852 2524.92 625.114C2524.92 635.141 2527.99 643.227 2534.14 649.372C2540.61 655.518 2550.63 660.208 2564.22 663.442L2606.43 673.146C2627.45 677.998 2643.14 685.275 2653.49 694.979C2663.84 704.359 2669.01 717.135 2669.01 733.307C2669.01 747.215 2665.3 759.345 2657.86 769.695C2650.42 779.722 2639.9 787.485 2626.32 792.983C2612.73 798.159 2596.72 800.746 2578.29 800.746Z" fill="#0051FF"/>
<g filter="url(#filter0_d_70_8)">
<path d="M2857.93 154.771L3048.89 179.337L3049.57 179.424L3049.93 180.003L3108.79 273.931L3109.01 274.282V380.882L3108.47 381.316L2995.31 471.535L3015.91 534.564L3066.11 435.434L3066.59 434.479L3067.64 434.663L3177.66 453.905L3179.13 454.163L3178.82 455.625L3153.97 574.119L3153.93 574.308L3153.85 574.479L3114.19 652.307L3109.07 684.847L3149.39 762.457L3149.5 762.66L3149.54 762.885L3162.62 840.917L3162.85 842.319L3161.45 842.577L3098.67 854.138L3098.23 854.22L3097.81 854.033L3004.95 812.127L3004.71 812.021L3004.53 811.84L2956.69 764.697L2902.51 776.098L2902.18 776.169L2901.84 776.081L2743.58 734.175L2743.15 734.061L2742.86 733.722L2634.3 608.003L2633.87 607.514L2633.96 606.873L2653.58 455.144L2653.65 454.587L2654.08 454.225L2743.02 379.082L2743.42 378.741H2766.14L2775.21 244.255L2775.24 243.748L2775.59 243.374L2856.68 155.226L2857.19 154.676L2857.93 154.771ZM2812.7 524.407L2785.96 549.867V571.187L2798.83 595.349L2823.51 627.521L2864.25 635.795L2908.17 621.155L2839.43 506.585L2812.7 524.407ZM2908.17 323.91L2922.17 374.193L2962.27 366.635L2980.73 323.91L2973.09 298.45L2942.54 294.631L2908.17 323.91Z" fill="white"/>
</g>
<path d="M2802.07 710.898C2768.86 700.075 2741.76 685.376 2720.77 666.801C2700.24 648.376 2686.6 627.603 2679.85 604.482C2673.1 581.362 2673.85 557.117 2682.12 531.748C2688.88 510.991 2698.74 493.282 2711.68 478.62C2725.08 464.109 2741.57 451.878 2761.14 441.928C2781.17 432.128 2804.21 424.072 2830.24 417.76L2857.81 410.671L2843.16 422.736C2829.31 393.22 2820.7 367.964 2817.34 346.969C2814.44 326.123 2816.07 306.245 2822.23 287.333C2829.45 265.193 2840.83 247.473 2856.39 234.175C2872.56 220.565 2891.61 212.23 2913.53 209.167C2935.9 206.255 2959.78 208.932 2985.15 217.2C3008.67 224.865 3027.61 235.631 3041.98 249.495C3056.34 263.359 3065.88 279.48 3070.61 297.858C3075.33 316.236 3074.24 336.034 3067.32 357.252C3061.91 373.858 3053.27 388.644 3041.39 401.611C3029.97 414.728 3014.32 425.956 2994.44 435.295C2974.56 444.634 2948.99 452.63 2917.74 459.284L2924.07 442.212L3004.19 619.098L2988.97 614.138C3006.2 598.834 3022.41 578.857 3037.58 554.209C3052.76 529.56 3065.85 502.701 3076.85 473.631L3135.66 492.796C3122.26 530.78 3105.01 564.954 3083.88 595.319C3063.38 625.374 3040.45 650.305 3015.12 670.112L3020.52 651.206L3091.93 798.465L3006.82 770.732L2967.58 684.47L2984.19 689.881C2957.45 706.17 2928.14 716.262 2896.25 720.159C2864.83 724.206 2833.44 721.119 2802.07 710.898ZM2823.79 655.982C2848.7 664.099 2872.19 666.395 2894.26 662.871C2916.48 658.887 2938.35 649.688 2959.89 635.275L2951.5 653.972L2857.17 452.558L2884.86 463.877L2859.82 470.259C2838.54 476.079 2820.71 482.259 2806.33 488.799C2792.41 495.49 2781.04 503.774 2772.21 513.652C2763.99 523.219 2757.62 534.922 2753.11 548.759C2745.45 572.284 2747.43 593.595 2759.07 612.694C2771.31 631.482 2792.89 645.911 2823.79 655.982ZM2968.46 268.399C2950.01 262.387 2933.29 262.806 2918.3 269.658C2903.78 276.659 2893.58 289.154 2887.72 307.144C2884.71 316.369 2883.24 325.584 2883.3 334.788C2883.52 343.531 2885.66 354.179 2889.73 366.732C2894.42 378.974 2900.89 394.349 2909.14 412.856L2891.85 407.22C2917.27 401.219 2937.56 395.329 2952.71 389.551C2967.86 383.772 2979.78 376.942 2988.47 369.059C2997.16 361.176 3003.31 351.7 3006.92 340.63C3012.48 323.563 3011.46 308.689 3003.86 296.006C2996.87 283.013 2985.07 273.811 2968.46 268.399Z" fill="#0051FF"/>
<defs>
<filter id="filter0_d_70_8" x="2624.45" y="154.676" width="564.097" height="719.148" filterUnits="userSpaceOnUse" color-interpolation-filters="sRGB">
<feFlood flood-opacity="0" result="BackgroundImageFix"/>
<feColorMatrix in="SourceAlpha" type="matrix" values="0 0 0 0 0 0 0 0 0 0 0 0 0 0 0 0 0 0 127 0" result="hardAlpha"/>
<feOffset dy="10.184"/>
<feGaussianBlur stdDeviation="4.7101"/>
<feComposite in2="hardAlpha" operator="out"/>
<feColorMatrix type="matrix" values="0 0 0 0 0 0 0 0 0 0 0 0 0 0 0 0 0 0 0.25 0"/>
<feBlend mode="normal" in2="BackgroundImageFix" result="effect1_dropShadow_70_8"/>
<feBlend mode="normal" in="SourceGraphic" in2="effect1_dropShadow_70_8" result="shape"/>
</filter>
</defs>
</svg>
